<?xml version="1.0" standalone="no"?>
<!DOCTYPE svg PUBLIC "-//W3C//DTD SVG 1.1//EN" "http://www.w3.org/Graphics/SVG/1.1/DTD/svg11.dtd" >
<svg xmlns="http://www.w3.org/2000/svg">
<metadata>
<json>
<![CDATA[
{
	"fontFamily": "Nioicon",
	"majorVersion": 1,
	"minorVersion": 3.1,
	"fontURL": "https://softnio.com",
	"copyright": "Softnio",
	"designer": "Softnio",
	"designerURL": "https://softnio.com",
	"license": "MIT",
	"description": "Handcrafted custom icon set for websites\nFont generated by IcoMoon.",
	"version": "Version 1.3",
	"fontId": "Nioicon",
	"psName": "Nioicon",
	"subFamily": "Regular",
	"fullName": "Nioicon"
}
]]>
</json>
</metadata>
<defs>
<font id="Nioicon" horiz-adv-x="1024">
<font-face units-per-em="1024" ascent="960" descent="-64" />
<missing-glyph horiz-adv-x="1024" />
<glyph unicode="&#x20;" horiz-adv-x="512" d="" />
<glyph unicode="&#xe900;" glyph-name="account-setting-alt" data-tags="account-setting-alt" d="M127.078 5.355c-0.022 0-0.049 0-0.075 0-23.55 0-42.641 19.091-42.641 42.641 0 2.674 0.246 5.29 0.717 7.828l-0.041-0.263c34.217 185.031 194.329 323.32 386.74 323.32 0.178 0 0.356 0 0.535 0h-0.028c23.564 0 42.667-19.103 42.667-42.667s-19.103-42.667-42.667-42.667v0c-139.405-0.465-257.076-92.988-295.431-219.935l-0.569-2.192c-2.492-8.058-5.008-18.481-6.968-29.099l-0.285-1.86c-3.724-20.072-21.082-35.075-41.951-35.106h-0.003zM677.372 653.564c-0.005 113.286-91.842 205.12-205.129 205.12-113.289 0-205.129-91.839-205.129-205.129s91.839-205.129 205.129-205.129c0.002 0 0.003 0 0.005 0v0c113.24 0.129 205.003 91.896 205.124 205.125v0.012zM592.038 653.564c0-0.001 0-0.003 0-0.004 0-66.161-53.634-119.795-119.795-119.795s-119.795 53.634-119.795 119.795c0 66.161 53.634 119.795 119.795 119.795 0.002 0 0.003 0 0.005 0v0c66.127-0.078 119.713-53.663 119.791-119.783v-0.007zM905.297 264.086h-23.253c-2.987 0-5.12 2.347-6.4 5.547-0.732 1.114-1.168 2.479-1.168 3.947s0.436 2.833 1.185 3.974l-0.017-0.028 15.787 15.787c6.585 6.335 10.675 15.223 10.675 25.065 0 0.265-0.003 0.528-0.009 0.792l0.001-0.039c-0.006 9.939-4.086 18.925-10.661 25.377l-29.407 28.771c-6.437 6.394-15.308 10.346-25.101 10.346-9.882 0-18.825-4.024-25.278-10.523l-0.002-0.002-14.72-17.067c-1.237-0.803-2.749-1.281-4.373-1.281s-3.137 0.478-4.405 1.3l0.032-0.019c-2.591 0.986-4.446 3.342-4.691 6.159l-0.002 0.027v23.253c0 19.794-16.046 35.84-35.84 35.84v0h-41.387c0 0 0 0-0.001 0-19.838 0-35.934-16.020-36.057-35.828v-21.772c0-2.987-2.342-5.12-5.547-6.4-1.114-0.732-2.479-1.168-3.947-1.168s-2.833 0.436-3.974 1.185l0.028-0.017-15.787 15.787c-6.632 6.592-15.773 10.667-25.866 10.667-0.057 0-0.113 0-0.17 0h0.009c-9.871-0.021-18.785-4.101-25.166-10.659l-0.008-0.008-28.766-29.402c-6.394-6.438-10.346-15.309-10.346-25.103 0-9.883 4.024-18.826 10.523-25.28l0.002-0.002 17.067-15.787c0.803-1.237 1.281-2.749 1.281-4.373s-0.478-3.137-1.3-4.405l0.019 0.032c-0.986-2.591-3.342-4.446-6.159-4.691l-0.027-0.002h-23.253c-19.794 0-35.84-16.046-35.84-35.84v-40.32c0.002-19.836 16.021-35.93 35.828-36.053h21.772c2.987 0 5.12-2.347 6.4-5.547 0.732-1.114 1.168-2.479 1.168-3.947s-0.436-2.833-1.185-3.974l0.017 0.028-15.787-15.787c-6.58-6.62-10.652-15.74-10.667-25.81v-0.003c0-0.016 0-0.035 0-0.055 0-9.925 4.083-18.896 10.66-25.325l0.007-0.006 29.402-28.779c6.439-6.394 15.31-10.347 25.105-10.347 9.882 0 18.824 4.023 25.278 10.52l0.002 0.002 15.787 17.067c1.237 0.804 2.75 1.282 4.375 1.282s3.138-0.478 4.407-1.301l-0.032 0.019c2.591-0.986 4.446-3.342 4.691-6.159l0.002-0.027v-23.253c0-19.794 16.046-35.84 35.84-35.84v0h40.32c0.012 0 0.026 0 0.040 0 19.311 0 35.077 15.183 36.010 34.263l0.003 0.084v23.253c0 2.987 2.342 5.12 5.547 6.4 1.114 0.732 2.479 1.168 3.947 1.168s2.833-0.436 3.974-1.185l-0.028 0.017 16.427-15.787c6.52-6.482 15.466-10.531 25.357-10.666h0.026c9.871 0.020 18.786 4.1 25.166 10.659l0.008 0.008 28.122 28.548c6.395 6.44 10.347 15.312 10.347 25.107 0 9.882-4.023 18.825-10.52 25.28l-16.429 16.424c-0.589 1.15-0.935 2.508-0.935 3.947 0 4.265 3.034 7.822 7.061 8.63l0.056 0.009h23.258c19.794 0 35.84 16.046 35.84 35.84v0 41.387c0 0.017 0 0.037 0 0.057 0 19.311-15.183 35.077-34.263 36.010l-0.084 0.003zM726.31 122.646c-47.128 0-85.333 38.205-85.333 85.333s38.205 85.333 85.333 85.333c47.128 0 85.333-38.205 85.333-85.333v0c-0.056-47.106-38.227-85.277-85.328-85.333h-0.005z" />
<glyph unicode="&#xe901;" glyph-name="account-setting-fill" data-tags="account-setting-fill" d="M574.895 697.127c0.437-4.008 0.686-8.656 0.686-13.362 0-35.496-14.182-67.68-37.189-91.194l0.023 0.024c-33.998-31.135-79.486-50.212-129.429-50.212-5.039 0-10.033 0.194-14.974 0.576l0.655-0.041c-3.273-0.124-6.562-0.209-9.813-0.209-1.796-0.061-3.908-0.096-6.027-0.096-49.417 0-94.397 18.998-128.034 50.089l0.126-0.115c-22.992 23.295-37.193 55.316-37.193 90.653 0 3.994 0.181 7.946 0.536 11.848l-0.037-0.502c8.884 93.529 85.627 166.507 180.012 169.41l0.284 0.007h0.29c93.886-2.63 170.218-74.396 180.012-166.057l0.071-0.817zM416 224c0 0.070 0 0.153 0 0.237 0 85.517 38.792 161.974 99.739 212.735l0.447 0.362h-270.852c-107.665 0-192-118.707-192-270.208v-49.792c0.095-4.5 1.008-8.761 2.595-12.677l-0.086 0.239c2.732-8.65 7.957-15.861 14.825-20.995l0.109-0.078c44.996-42.475 172.877-73.156 323.891-73.156 0.106 0 0.23 0 0.354 0 40.235 0 79.933 2.299 118.97 6.772l-4.769-0.444c-57.298 50.873-93.222 124.726-93.222 206.969 0 0.013 0 0.026 0 0.039v-0.002zM904.32 269.44h-23.253c-2.987 0-5.12 2.347-6.4 5.547-0.732 1.114-1.168 2.479-1.168 3.947s0.436 2.833 1.185 3.974l-0.017-0.028 15.787 15.787c6.585 6.338 10.675 15.226 10.675 25.070 0 0.261-0.003 0.522-0.009 0.782l0.001-0.039c-0.009 9.94-4.089 18.926-10.661 25.382l-0.005 0.005-29.406 28.762c-6.437 6.396-15.308 10.35-25.103 10.35-9.882 0-18.823-4.024-25.276-10.523l-0.002-0.002-14.72-17.067c-1.237-0.803-2.749-1.281-4.373-1.281s-3.137 0.478-4.405 1.3l0.032-0.019c-2.591 0.986-4.446 3.342-4.691 6.159l-0.002 0.027v23.253c0 19.794-16.046 35.84-35.84 35.84h-41.387c-0.001 0-0.003 0-0.005 0-19.836 0-35.93-16.021-36.048-35.829v-21.771c0-2.987-2.347-5.12-5.547-6.4-1.114-0.732-2.479-1.168-3.947-1.168s-2.833 0.436-3.974 1.185l0.028-0.017-15.787 15.787c-6.632 6.592-15.773 10.667-25.866 10.667-0.057 0-0.113 0-0.17 0h0.009c-9.871-0.020-18.786-4.1-25.166-10.659l-0.008-0.008-28.762-29.406c-6.395-6.438-10.348-15.309-10.348-25.103 0-9.881 4.023-18.823 10.521-25.276l0.002-0.002 17.067-15.787c0.803-1.237 1.281-2.749 1.281-4.373s-0.478-3.137-1.3-4.405l0.019 0.032c-0.986-2.591-3.342-4.446-6.159-4.691l-0.027-0.002h-23.253c-19.794 0-35.84-16.046-35.84-35.84v0-40.32c0 0 0 0 0-0.001 0-19.837 16.020-35.932 35.828-36.053h21.772c2.987 0 5.12-2.347 6.4-5.547 0.732-1.114 1.168-2.479 1.168-3.947s-0.436-2.833-1.185-3.974l0.017 0.028-15.787-15.787c-6.58-6.62-10.652-15.74-10.667-25.81v-0.003c0-0.016 0-0.035 0-0.055 0-9.925 4.083-18.896 10.66-25.325l0.007-0.006 29.406-28.762c6.438-6.394 15.309-10.346 25.103-10.346 9.881 0 18.822 4.022 25.276 10.519l0.002 0.002 15.787 17.067c1.237 0.803 2.749 1.281 4.373 1.281s3.137-0.478 4.405-1.3l-0.032 0.019c2.591-0.986 4.446-3.342 4.691-6.159l0.002-0.027v-23.253c0-19.794 16.046-35.84 35.84-35.84v0h40.32c0.012 0 0.026 0 0.040 0 19.311 0 35.077 15.183 36.010 34.263l0.003 0.084v23.253c0 2.987 2.347 5.12 5.547 6.4 1.114 0.732 2.479 1.168 3.947 1.168s2.833-0.436 3.974-1.185l-0.028 0.017 16.427-15.787c6.521-6.483 15.468-10.532 25.361-10.666h0.026c9.871 0.020 18.786 4.1 25.166 10.659l0.008 0.008 28.122 28.548c6.397 6.438 10.35 15.31 10.35 25.105 0 9.882-4.024 18.825-10.523 25.278l-16.429 16.429c-0.589 1.149-0.934 2.508-0.934 3.947 0 4.267 3.036 7.824 7.065 8.631l0.056 0.009h23.253c19.794 0 35.84 16.046 35.84 35.84v0 41.387c0 0.012 0 0.026 0 0.040 0 19.311-15.183 35.077-34.263 36.010l-0.084 0.003zM725.333 106.667c-58.91 0-106.667 47.756-106.667 106.667s47.756 106.667 106.667 106.667c58.91 0 106.667-47.756 106.667-106.667v0c-0.068-58.883-47.784-106.599-106.66-106.667h-0.006z" />
<glyph unicode="&#xe902;" glyph-name="account-setting" data-tags="account-setting" d="M436.48 532.054c-3.251 0-6.524 0.085-9.813 0.209-4.41-0.363-9.545-0.569-14.729-0.569-49.815 0-95.172 19.088-129.155 50.348l0.136-0.124c-22.992 23.295-37.193 55.316-37.193 90.653 0 3.994 0.181 7.946 0.536 11.848l-0.037-0.502c8.907 93.519 85.637 166.484 180.010 169.41l0.286 0.007h0.29c93.907-2.612 170.259-74.41 180.013-166.102l0.070-0.814c0.435-3.997 0.683-8.633 0.683-13.327 0-35.496-14.181-67.68-37.186-91.196l0.023 0.024c-33.504-30.968-78.475-49.962-127.881-49.962-2.129 0-4.249 0.035-6.361 0.105l0.307-0.008zM426.667 617.626c0.73 0 1.438 0 2.167-0.043 3.374-0.368 7.288-0.577 11.25-0.577 26.464 0 50.742 9.355 69.709 24.939l-0.191-0.153c7.867 7.998 12.725 18.978 12.725 31.092 0 1.892-0.118 3.755-0.348 5.585l0.022-0.218c-5.76 48.934-45.631 86.933-94.921 89.737l-0.268 0.012h-0.29c-50.313-3.134-90.567-42.292-95.395-91.831l-0.033-0.418c-0.086-1.018-0.135-2.204-0.135-3.401 0-11.952 4.88-22.765 12.756-30.554l0.004-0.004c18.793-15.428 43.087-24.781 69.565-24.781 3.946 0 7.843 0.208 11.681 0.613l-0.479-0.041c0.742 0.043 1.451 0.043 2.18 0.043zM170.667 42.667v113.792c0 98.5 49.856 184.875 106.667 184.875h170.667c23.564 0 42.667 19.103 42.667 42.667s-19.103 42.667-42.667 42.667v0h-170.667c-107.665 0-192-118.707-192-270.208v-113.792c0-23.564 19.103-42.667 42.667-42.667s42.667 19.103 42.667 42.667v0zM904.32 269.44h-23.253c-2.987 0-5.12 2.347-6.4 5.547-0.732 1.114-1.168 2.479-1.168 3.947s0.436 2.833 1.185 3.974l-0.017-0.028 15.787 15.787c6.585 6.338 10.675 15.226 10.675 25.070 0 0.261-0.003 0.522-0.009 0.782l0.001-0.039c-0.009 9.94-4.089 18.926-10.661 25.382l-0.005 0.005-29.406 28.762c-6.437 6.396-15.308 10.35-25.103 10.35-9.882 0-18.823-4.024-25.276-10.523l-0.002-0.002-14.72-17.067c-1.237-0.803-2.749-1.281-4.373-1.281s-3.137 0.478-4.405 1.3l0.032-0.019c-2.591 0.986-4.446 3.342-4.691 6.159l-0.002 0.027v23.253c0 19.794-16.046 35.84-35.84 35.84h-41.387c-0.001 0-0.003 0-0.005 0-19.836 0-35.93-16.021-36.048-35.829v-21.771c0-2.987-2.347-5.12-5.547-6.4-1.114-0.732-2.479-1.168-3.947-1.168s-2.833 0.436-3.974 1.185l0.028-0.017-15.787 15.787c-6.632 6.592-15.773 10.667-25.866 10.667-0.057 0-0.113 0-0.17 0h0.009c-9.871-0.020-18.786-4.1-25.166-10.659l-0.008-0.008-28.762-29.406c-6.395-6.438-10.348-15.309-10.348-25.103 0-9.881 4.023-18.823 10.521-25.276l0.002-0.002 17.067-15.787c0.803-1.237 1.281-2.749 1.281-4.373s-0.478-3.137-1.3-4.405l0.019 0.032c-0.986-2.591-3.342-4.446-6.159-4.691l-0.027-0.002h-23.253c-19.794 0-35.84-16.046-35.84-35.84v0-40.32c0 0 0 0 0-0.001 0-19.837 16.020-35.932 35.828-36.053h21.772c2.987 0 5.12-2.347 6.4-5.547 0.732-1.114 1.168-2.479 1.168-3.947s-0.436-2.833-1.185-3.974l0.017 0.028-15.787-15.787c-6.58-6.62-10.652-15.74-10.667-25.81v-0.003c0-0.016 0-0.035 0-0.055 0-9.925 4.083-18.896 10.66-25.325l0.007-0.006 29.406-28.762c6.438-6.394 15.309-10.346 25.103-10.346 9.881 0 18.822 4.022 25.276 10.519l0.002 0.002 15.787 17.067c1.237 0.803 2.749 1.281 4.373 1.281s3.137-0.478 4.405-1.3l-0.032 0.019c2.591-0.986 4.446-3.342 4.691-6.159l0.002-0.027v-23.253c0-19.794 16.046-35.84 35.84-35.84v0h40.32c0.012 0 0.026 0 0.040 0 19.311 0 35.077 15.183 36.010 34.263l0.003 0.084v23.253c0 2.987 2.347 5.12 5.547 6.4 1.114 0.732 2.479 1.168 3.947 1.168s2.833-0.436 3.974-1.185l-0.028 0.017 16.427-15.787c6.521-6.483 15.468-10.532 25.361-10.666h0.026c9.871 0.020 18.786 4.1 25.166 10.659l0.008 0.008 28.122 28.548c6.397 6.438 10.35 15.31 10.35 25.105 0 9.882-4.024 18.825-10.523 25.278l-16.429 16.429c-0.589 1.149-0.934 2.508-0.934 3.947 0 4.267 3.036 7.824 7.065 8.631l0.056 0.009h23.253c19.794 0 35.84 16.046 35.84 35.84v0 41.387c0 0.012 0 0.026 0 0.040 0 19.311-15.183 35.077-34.263 36.010l-0.084 0.003zM725.333 128c-47.128 0-85.333 38.205-85.333 85.333s38.205 85.333 85.333 85.333c47.128 0 85.333-38.205 85.333-85.333v0c-0.056-47.106-38.227-85.277-85.328-85.333h-0.005z" />
<glyph unicode="&#xe903;" glyph-name="activity-alt" data-tags="activity-alt" d="M640-0c-0.006 0-0.012 0-0.019 0-18.725 0-34.63 12.077-40.349 28.867l-0.089 0.3-215.543 646.583-87.543-262.583c-5.808-17.090-21.713-29.167-40.438-29.167-0.007 0-0.013 0-0.020 0h-170.666c-23.564 0-42.667 19.103-42.667 42.667s19.103 42.667 42.667 42.667v0h139.917l118.293 354.833c5.817 17.091 21.726 29.168 40.457 29.168s34.64-12.076 40.368-28.868l0.089-0.3 215.543-646.583 87.543 262.583c5.808 17.090 21.713 29.167 40.438 29.167 0.007 0 0.013 0 0.020 0h170.666c23.564 0 42.667-19.103 42.667-42.667s-19.103-42.667-42.667-42.667v0h-139.917l-118.293-354.833c-5.808-17.090-21.713-29.167-40.438-29.167-0.007 0-0.013 0-0.020 0h0.001z" />
<glyph unicode="&#xe904;" glyph-name="activity-round-fill" data-tags="activity-round-fill" d="M777.481 853.334h-530.961c-88.979-0.104-161.082-72.207-161.186-161.176v-530.971c0.104-88.979 72.207-161.082 161.176-161.186h530.971c88.979 0.104 161.082 72.207 161.186 161.176v530.971c-0.104 88.979-72.207 161.082-161.176 161.186h-0.010zM749.043 384h-64.064l-61.397-184.166c-5.823-17.097-21.74-29.176-40.478-29.176s-34.655 12.079-40.389 28.876l-0.089 0.3-101.73 305.25-30.647-91.917c-5.826-17.092-21.74-29.167-40.475-29.167-0.001 0-0.002 0-0.003 0h-94.814c-23.564 0-42.667 19.103-42.667 42.667s19.103 42.667 42.667 42.667v0h64.064l61.397 184.166c5.823 17.097 21.74 29.176 40.478 29.176s34.655-12.079 40.389-28.876l0.089-0.3 101.73-305.25 30.647 91.917c5.826 17.092 21.74 29.167 40.475 29.167 0.001 0 0.002 0 0.003 0h94.814c23.564 0 42.667-19.103 42.667-42.667s-19.103-42.667-42.667-42.667v0z" />
<glyph unicode="&#xe905;" glyph-name="activity-round" data-tags="activity-round" d="M777.481 768c41.892 0 75.853-33.96 75.853-75.853v-530.961c0-41.892-33.96-75.853-75.853-75.853v0h-530.961c-41.892 0-75.853 33.96-75.853 75.853v0 530.961c0 41.892 33.96 75.853 75.853 75.853v0h530.961zM777.481 853.334h-530.961c-88.979-0.104-161.082-72.207-161.186-161.176v-530.971c0.104-88.979 72.207-161.082 161.176-161.186h530.971c88.979 0.104 161.082 72.207 161.186 161.176v530.971c-0.104 88.979-72.207 161.082-161.176 161.186h-0.010zM623.582 199.834l61.397 184.166h64.064c23.564 0 42.667 19.103 42.667 42.667s-19.103 42.667-42.667 42.667v0h-94.814c-0.001 0-0.002 0-0.003 0-18.735 0-34.649-12.075-40.386-28.867l-0.089-0.3-30.647-91.917-101.73 305.25c-5.826 17.092-21.74 29.167-40.475 29.167-0.001 0-0.002 0-0.003 0v0c-0.001 0-0.002 0-0.003 0-18.735 0-34.649-12.075-40.386-28.867l-0.089-0.3-61.397-184.166h-64.064c-23.564 0-42.667-19.103-42.667-42.667s19.103-42.667 42.667-42.667v0h94.814c0.001 0 0.002 0 0.003 0 18.735 0 34.649 12.075 40.386 28.867l0.089 0.3 30.647 91.917 101.73-305.25c5.826-17.092 21.74-29.167 40.475-29.167 0.001 0 0.002 0 0.003 0v0c0.001 0 0.002 0 0.003 0 18.735 0 34.649 12.075 40.386 28.867l0.089 0.3z" />
<glyph unicode="&#xe906;" glyph-name="activity" data-tags="activity" d="M384-0c-0.006 0-0.012 0-0.019 0-18.725 0-34.63 12.077-40.349 28.867l-0.089 0.3-118.293 354.833h-139.917c-23.564 0-42.667 19.103-42.667 42.667s19.103 42.667 42.667 42.667v0h170.667c0.006 0 0.012 0 0.019 0 18.725 0 34.63-12.077 40.349-28.867l0.089-0.3 87.543-262.583 215.543 646.583c5.817 17.091 21.726 29.168 40.457 29.168s34.64-12.076 40.368-28.868l0.089-0.3 118.293-354.833h139.917c23.564 0 42.667-19.103 42.667-42.667s-19.103-42.667-42.667-42.667v0h-170.667c-0.006 0-0.012 0-0.019 0-18.725 0-34.63 12.077-40.349 28.867l-0.089 0.3-87.543 262.583-215.543-646.583c-5.808-17.090-21.713-29.167-40.438-29.167-0.007 0-0.013 0-0.020 0h0.001z" />
<glyph unicode="&#xe907;" glyph-name="adobe" data-tags="adobe" d="M85.333 71.113v711.108h316.48zM711.074 71.113h-135.185l-56.853 142.221h-145.741l138.705 305.741zM938.667 782.221v-711.108l-316.48 711.108z" />
<glyph unicode="&#xe908;" glyph-name="airbnb" data-tags="airbnb" d="M863.309 270.149c-5.918 22.045-13.987 41.323-24.24 59.188l0.632-1.195c-2.799 6.076-4.885 10.586-5.683 12.668-216.559 460.941-231.164 474.125-322.018 474.125-84.292 0-119.283-58.453-153.271-129.101-170.185-340.369-194.27-403.11-197.367-412.237-7.47-18.591-11.803-40.144-11.803-62.709 0-95.265 77.228-172.493 172.493-172.493 0.521 0 1.041 0.002 1.561 0.007l-0.080-0.001c62.882 0 124.561 32.341 188.459 98.846 44.83-55.127 110.278-91.989 184.426-98.768l1.050-0.078h4.629c58.405 0.485 109.926 29.525 141.343 73.825l0.366 0.543c19.038 27.161 30.422 60.897 30.422 97.293 0 21.589-4.006 42.242-11.314 61.257l0.395-1.169zM638.131 466.219c-23.207 44.291-68.854 73.992-121.437 73.992-1.651 0-3.295-0.029-4.931-0.087l0.237 0.007c-1.243 0.041-2.704 0.064-4.171 0.064-41.976 0-79.51-19.021-104.453-48.913l-0.176-0.217c-19.64-26.167-31.452-59.19-31.452-94.972 0-14.198 1.859-27.961 5.348-41.059l-0.252 1.111c18.778-62.921 48.628-117.461 87.625-164.089l-0.585 0.719c-31.334-40.114-75.595-68.851-126.442-79.993l-1.455-0.268c-4.616-0.74-9.938-1.163-15.358-1.165h-0.002c-0.113 0-0.246-0.001-0.38-0.001-32.367 0-60.97 16.117-78.221 40.764l-0.204 0.308c-11.666 16.561-18.645 37.153-18.645 59.376 0 13.123 2.434 25.678 6.875 37.237l-0.24-0.711c16.819 43.58 95.539 203.349 147.627 309.073 29.939 60.77 44.292 89.954 46.263 95.027l8.077 15.701c22.409 44.164 37.205 73.327 80.128 73.327 43.473 0 59.255-31.706 85.397-84.237l4.591-9.22c64.649-126.852 150.438-299.174 192.119-399.953 4.529-10.943 7.159-23.65 7.159-36.972 0-41.548-25.58-77.122-61.851-91.831l-0.664-0.238c-11.532-5.216-24.998-8.278-39.174-8.333h-0.020c-42.24 0-87.855 26.833-139.328 82.014 112.516 144.96 97.242 233.523 77.995 273.54zM448.789 372.668c-2.775 7.762-4.378 16.717-4.378 26.046 0 16.581 5.066 31.979 13.734 44.73l-0.178-0.278c13.206 15.132 32.528 24.639 54.069 24.639s40.863-9.507 53.997-24.554l0.073-0.085c8.487-12.48 13.55-27.883 13.55-44.469 0-9.342-1.606-18.308-4.558-26.638l0.172 0.558c-13.321-46.883-35.071-87.606-63.731-122.428l0.46 0.576c-28.511 34.123-50.296 74.928-62.676 119.641l-0.534 2.262zM522.5 258.445c-2.987-4.493-5.606-8.828-8.794-13.406l-0.375 0.525c3.362 4.386 6.063 8.572 9.169 12.881zM510.455 141.965l0.026-0.026-1.229-1.225z" />
<glyph unicode="&#xe909;" glyph-name="alarm-alt" data-tags="alarm-alt" d="M512 810.667c-212.077 0-384-171.923-384-384s171.923-384 384-384c212.077 0 384 171.923 384 384v0c-0.243 211.98-172.021 383.758-383.977 384h-0.023zM512 128c-164.949 0-298.667 133.718-298.667 298.667s133.718 298.667 298.667 298.667c164.949 0 298.667-133.718 298.667-298.667v0c-0.197-164.87-133.797-298.47-298.648-298.667h-0.019zM656.29 341.21c-6.728-15.231-21.701-25.668-39.112-25.668-6.153 0-12.001 1.303-17.284 3.649l0.272-0.108-105.165 45.717c-15.231 6.725-25.668 21.697-25.668 39.106 0 0.004 0 0.007 0 0.011v-0.001 182.665c0 23.564 19.103 42.667 42.667 42.667s42.667-19.103 42.667-42.667v0-154.705l79.501-34.56c15.225-6.732 25.657-21.703 25.657-39.11 0-6.147-1.301-11.99-3.642-17.269l0.108 0.272zM136.478 701.125c-6.821-4.828-15.312-7.718-24.478-7.718-23.57 0-42.677 19.107-42.677 42.677 0 14.404 7.136 27.141 18.065 34.869l0.134 0.090 167.458 117.248c6.821 4.828 15.312 7.718 24.478 7.718 23.569 0 42.675-19.106 42.675-42.675 0-14.403-7.135-27.139-18.063-34.867l-0.134-0.090zM946.957 711.625c-7.82-11.067-20.561-18.206-34.97-18.206-9.16 0-17.646 2.885-24.599 7.796l0.134-0.090-167.458 117.252c-11.062 7.818-18.197 20.554-18.197 34.957 0 23.569 19.106 42.675 42.675 42.675 9.166 0 17.657-2.89 24.611-7.808l-0.134 0.090 167.458-117.248c11.055-7.821 18.184-20.555 18.184-34.954 0-9.159-2.885-17.645-7.795-24.597l0.090 0.134z" />
<glyph unicode="&#xe90a;" glyph-name="alarm" data-tags="alarm" d="M665.041 279.582c-6.748-15.231-21.731-25.664-39.152-25.664-0.006 0-0.011 0-0.017 0h0.001c-6.136 0.003-11.964 1.315-17.223 3.67l0.268-0.107-113.003 49.122c-15.228 6.738-25.661 21.713-25.664 39.125v0 164.211c0 23.564 19.103 42.667 42.667 42.667s42.667-19.103 42.667-42.667v0-136.23l87.334-37.973c15.23-6.739 25.665-21.717 25.665-39.133 0-6.156-1.304-12.007-3.65-17.293l0.108 0.272zM844.373 67.145c6.745-7.514 10.87-17.5 10.87-28.45 0-23.564-19.103-42.667-42.667-42.667-13.471 0-25.483 6.243-33.303 15.993l-0.065 0.084-63.014 74.633c-56.148-42.886-127.321-68.714-204.526-68.714-77.016 0-148.029 25.702-204.929 68.997l0.832-0.607-62.195-73.685c-7.885-9.808-19.882-16.032-33.332-16.032-23.564 0-42.667 19.103-42.667 42.667 0 10.928 4.109 20.897 10.865 28.446l-0.036-0.041 65.707 77.854c-47.075 57.654-75.598 132.067-75.598 213.141 0 42.297 7.763 82.782 21.943 120.106l-0.775-2.324c-47.578 61.867-95.543 169.719-14.707 244.868 81.186 75.452 185.98 18.825 244.028-33.387 13.496 3.952 29.856 7.355 46.601 9.534l1.702 0.181v73.301h-42.667c-23.564 0-42.667 19.103-42.667 42.667s19.103 42.667 42.667 42.667v0h170.667c23.564 0 42.667-19.103 42.667-42.667s-19.103-42.667-42.667-42.667v0h-42.667v-73.335c18.267-2.347 34.452-5.711 50.17-10.184l-2.383 0.58c58.027 52.279 163.81 109.918 245.333 33.668 80.64-75.52 32.073-183.411-15.787-245.116 13.431-35.027 21.21-75.546 21.21-117.881 0-80.878-28.392-155.126-75.752-213.318l0.488 0.618zM691.345 649.020c37.196-23.406 68.516-52.4 93.76-86.197l0.645-0.902c17.869 31.701 30.921 71.863 3.499 97.54-27.703 25.92-67.366 9.745-97.903-10.441zM237.653 562.036c25.798 34.546 56.976 63.426 92.579 85.942l1.411 0.833c-30.319 19.942-69.325 35.61-96.768 10.086-27.341-25.404-14.775-65.225 2.778-96.862zM511.654 103.369c0.090 0 0.196 0 0.302 0 141.385 0 256 114.615 256 256s-114.615 256-256 256c-102.44 0-190.827-60.17-231.747-147.096l-0.662-1.563-0.077-0.158c-15.044-31.501-23.832-68.466-23.832-107.483 0-69.163 27.611-131.877 72.412-177.72l-0.047 0.048c0.853-0.614 1.865-0.785 2.679-1.468 1.49-1.585 2.869-3.314 4.102-5.15l0.092-0.145c45.758-44.105 108.1-71.276 176.788-71.279h0.001z" />
<glyph unicode="&#xe90b;" glyph-name="alert-c" data-tags="alert-c" d="M512.166 1.041c-124.541 0.001-246.858 9.515-366.266 27.854l13.348-1.687c-22.184 3.624-42.010 11.445-59.45 22.656l0.617-0.371c-42.183 24.794-70.051 69.951-70.051 121.616 0 13.884 2.013 27.299 5.762 39.967l-0.253-0.995c89.865 233.649 215.843 434.292 373.199 605.66l-1.239-1.368 0.427 0.427c12.809 12.189 28.245 21.747 45.36 27.728l0.887 0.27c16.769 6.341 36.156 10.012 56.4 10.012 39.662 0 76.032-14.091 104.378-37.54l-0.275 0.221c157.14-170.752 283.77-372.479 369.407-594.577l4.353-12.838c3.999-10.731 6.312-23.13 6.312-36.069 0-5.875-0.477-11.639-1.395-17.255l0.083 0.613c-11.084-66.359-63.101-117.898-128.793-128.14l-0.871-0.112c-105.762-16.594-227.733-26.074-351.917-26.074-0.009 0-0.018 0-0.026 0h0.003zM467.665 753.541c-146.537-160.688-265.206-349.842-346.44-557.746l-4.225-12.28c-0.541-1.784-1.093-3.249-1.726-4.669l0.101 0.253c-0.198-1.8-0.31-3.888-0.31-6.002 0-22.068 12.28-41.268 30.38-51.139l0.305-0.152c7.511-4.914 16.362-8.49 25.872-10.15l0.42-0.061c102.163-16.037 219.982-25.198 339.94-25.198 120.060 0 237.977 9.177 353.088 26.867l-12.862-1.626c28.078 5.052 50.154 26.065 56.695 53.139l0.099 0.484c0.399 1.796 0.627 3.859 0.627 5.975 0 2.998-0.458 5.89-1.309 8.608l0.055-0.204c-85.522 221.822-204.792 412.39-353.574 575.581l1.284-1.429c-12.58 8.588-28.119 13.714-44.855 13.714-10.55 0-20.625-2.037-29.852-5.739l0.54 0.191c-5.518-1.93-10.264-4.797-14.285-8.449l0.034 0.030zM76.126 195.793v0zM561.792 384v170.667c0 23.564-19.103 42.667-42.667 42.667s-42.667-19.103-42.667-42.667v0-170.667c0-23.564 19.103-42.667 42.667-42.667s42.667 19.103 42.667 42.667v0zM542.293 218.88c3.746 3.815 6.775 8.349 8.858 13.374l0.102 0.279c2.092 4.778 3.34 10.34 3.413 16.186v0.027c-0.116 6.024-1.359 11.726-3.527 16.948l0.113-0.308c-2.185 5.305-5.214 9.839-8.966 13.66l0.006-0.006c-7.862 7.684-18.629 12.425-30.504 12.425-5.761 0-11.261-1.116-16.296-3.143l0.293 0.104c-5.463-2.336-10.132-5.501-14.086-9.392l0.006 0.006c-3.746-3.815-6.775-8.349-8.858-13.374l-0.102-0.279c-2.054-4.914-3.297-10.616-3.413-16.595l-0.001-0.045c0-0.033 0-0.073 0-0.112 0-11.629 4.73-22.153 12.372-29.753l0.002-0.002c3.859-4.028 8.557-7.219 13.817-9.295l0.263-0.092c4.863-2.159 10.535-3.416 16.502-3.416 11.787 0 22.428 4.907 29.991 12.789l0.014 0.014z" />
<glyph unicode="&#xe90c;" glyph-name="alert-circle-fill" data-tags="alert-circle-fill" d="M512 853.334c-235.641 0-426.667-191.025-426.667-426.667s191.025-426.667 426.667-426.667c235.641 0 426.667 191.025 426.667 426.667v0c-0.269 235.533-191.134 426.397-426.641 426.667h-0.026zM551.253 239.787c-2.311-5.418-5.325-10.074-8.997-14.122l0.037 0.042c-1.923-1.743-4.009-3.424-6.191-4.979l-0.209-0.141c-2.211-1.52-4.75-2.819-7.452-3.77l-0.228-0.070c-2.221-1.148-4.796-2.037-7.509-2.534l-0.171-0.026c-2.51-0.46-5.452-0.767-8.45-0.851l-0.084-0.002c-0.28-0.008-0.61-0.012-0.94-0.012-5.548 0-10.801 1.264-15.487 3.519l0.214-0.093c-10.736 3.986-19.054 12.304-22.953 22.774l-0.087 0.266c-2.093 4.778-3.341 10.341-3.413 16.186v0.027c0.075 3.070 0.382 6.012 0.906 8.879l-0.052-0.346c0.51 2.882 1.401 5.459 2.631 7.831l-0.071-0.151c1.025 2.93 2.323 5.469 3.913 7.792l-0.073-0.112c1.679 2.389 3.36 4.476 5.164 6.449l-0.044-0.049c4.002 3.643 8.659 6.658 13.759 8.838l0.321 0.122c4.827 2.162 10.461 3.422 16.389 3.422 2.959 0 5.845-0.314 8.627-0.91l-0.269 0.048c2.882-0.51 5.459-1.401 7.831-2.631l-0.151 0.071c2.93-1.021 5.469-2.32 7.791-3.912l-0.111 0.072c2.133-1.707 4.267-3.413 6.4-5.12 1.707-2.133 3.413-4.267 5.12-6.4 1.517-2.211 2.815-4.75 3.769-7.451l0.071-0.229c1.148-2.221 2.037-4.796 2.534-7.509l0.026-0.171c0.46-2.51 0.767-5.452 0.851-8.45l0.002-0.084c-0.073-5.873-1.322-11.435-3.52-16.489l0.107 0.275zM554.667 426.667c0-23.564-19.103-42.667-42.667-42.667s-42.667 19.103-42.667 42.667v0 170.667c0 23.564 19.103 42.667 42.667 42.667s42.667-19.103 42.667-42.667v0z" />
<glyph unicode="&#xe90d;" glyph-name="alert-circle" data-tags="alert-circle" d="M512-0c-235.641 0-426.667 191.025-426.667 426.667s191.025 426.667 426.667 426.667c235.641 0 426.667-191.025 426.667-426.667v0c-0.269-235.533-191.134-426.397-426.641-426.667h-0.026zM512 768c-188.513 0-341.333-152.82-341.333-341.333s152.82-341.333 341.333-341.333c188.513 0 341.333 152.82 341.333 341.333v0c-0.223 188.423-152.91 341.11-341.312 341.333h-0.022zM554.667 426.667v170.667c0 23.564-19.103 42.667-42.667 42.667s-42.667-19.103-42.667-42.667v0-170.667c0-23.564 19.103-42.667 42.667-42.667s42.667 19.103 42.667 42.667v0zM520.533 214.187c2.884 0.523 5.459 1.412 7.837 2.633l-0.157-0.073c2.93 1.021 5.469 2.32 7.791 3.912l-0.111-0.072c2.133 1.707 4.267 3.413 6.4 5.12 1.707 2.133 3.413 4.267 5.12 6.4 1.52 2.211 2.819 4.75 3.77 7.452l0.070 0.228c1.148 2.221 2.037 4.796 2.534 7.509l0.026 0.171c0.437 2.486 0.743 5.427 0.85 8.418l0.003 0.115c-0.087 3.081-0.394 6.023-0.907 8.893l0.053-0.36c-0.523 2.884-1.412 5.459-2.633 7.837l0.073-0.157c-1.025 2.93-2.323 5.469-3.913 7.792l0.073-0.112c-1.707 2.133-3.413 4.267-5.12 6.4-2.133 1.707-4.267 3.413-6.4 5.12-2.211 1.52-4.75 2.819-7.452 3.77l-0.228 0.070c-2.221 1.159-4.798 2.050-7.516 2.536l-0.164 0.024c-2.512 0.548-5.398 0.862-8.358 0.862-5.928 0-11.562-1.259-16.649-3.525l0.26 0.104c-5.421-2.302-10.078-5.317-14.12-8.996l0.040 0.036c-1.707-2.133-3.413-4.267-5.12-6.4-1.517-2.211-2.815-4.75-3.769-7.451l-0.071-0.229c-1.159-2.221-2.050-4.798-2.536-7.516l-0.024-0.164c-0.471-2.521-0.778-5.463-0.852-8.464l-0.001-0.070c0.098-3.093 0.404-6.034 0.908-8.907l-0.054 0.374c0.51-2.882 1.401-5.459 2.631-7.831l-0.071 0.151c1.021-2.93 2.32-5.469 3.912-7.791l-0.072 0.111c1.707-2.133 3.413-4.267 5.12-6.4 7.883-7.512 18.525-12.192 30.258-12.373h0.036c3.106 0.11 6.047 0.416 8.924 0.909l-0.39-0.055z" />
<glyph unicode="&#xe90e;" glyph-name="alert-fill-c" data-tags="alert-fill-c" d="M988.749 208.086c-89.968 234.943-216.601 436.673-374.966 608.742l1.206-1.327c-28.069 23.23-64.439 37.322-104.099 37.322-20.246 0-39.634-3.672-57.534-10.387l1.13 0.372c-18.042-6.254-33.51-15.844-46.381-28.13l0.049 0.047-0.333-0.333c-156.129-170.008-282.106-370.673-367.577-591.511l-4.37-12.836c-3.478-11.648-5.48-25.032-5.48-38.884 0-51.703 27.891-96.892 69.448-121.342l0.659-0.359c16.8-10.816 36.597-18.625 57.845-22.128l0.903-0.123c106.059-16.651 228.375-26.165 352.912-26.167h0.006c124.186 0.001 246.157 9.484 365.229 27.763l-13.31-1.681c66.563 10.354 118.58 61.893 129.539 127.345l0.125 0.906c0.818 4.974 1.286 10.707 1.286 16.549 0 12.969-2.304 25.4-6.525 36.906l0.239-0.744zM551.253 232.534c-2.185-5.305-5.214-9.839-8.966-13.66l0.006 0.006c-3.925-3.923-8.602-7.095-13.796-9.281l-0.284-0.106c-4.791-2.015-10.361-3.185-16.203-3.185-11.838 0-22.553 4.805-30.302 12.571l-0.001 0.001c-3.733 3.903-6.882 8.406-9.28 13.342l-0.137 0.312c-1.874 4.601-2.962 9.939-2.962 15.532 0 0.24 0.002 0.479 0.006 0.718v-0.036c-0.005 0.239-0.008 0.52-0.008 0.803 0 5.74 1.261 11.186 3.52 16.075l-0.099-0.238c2.185 5.305 5.214 9.839 8.966 13.66l-0.006-0.006c3.948 3.885 8.617 7.051 13.788 9.275l0.292 0.112c4.752 1.941 10.266 3.068 16.044 3.068 11.867 0 22.624-4.754 30.469-12.461l-0.006 0.006c3.746-3.815 6.775-8.349 8.858-13.374l0.102-0.279c2.054-4.914 3.297-10.616 3.413-16.595l0.001-0.045c-0.073-5.873-1.322-11.435-3.52-16.489l0.107 0.275zM561.792 384c0-23.564-19.103-42.667-42.667-42.667s-42.667 19.103-42.667 42.667v0 170.667c0 23.564 19.103 42.667 42.667 42.667s42.667-19.103 42.667-42.667v0z" />
<glyph unicode="&#xe90f;" glyph-name="alert-fill" data-tags="alert-fill" d="M915.895 219.981l-311.415 533.436c-15.803 26.685-41.325 46.198-71.578 53.791l-0.797 0.169c-8.229 2.134-17.676 3.36-27.41 3.36-22.446 0-43.37-6.516-60.983-17.759l0.457 0.273c-15.992-10.139-29.049-23.511-38.529-39.279l-0.297-0.533-0.145-0.23-311.633-533.833c-9.597-16.82-15.254-36.962-15.254-58.425 0-43.118 22.833-80.903 57.068-101.922l0.52-0.297c16.509-9.921 36.393-15.866 57.651-16.064h623.117c63.74 1.354 114.894 53.344 114.894 117.283 0 0.721-0.007 1.441-0.019 2.159l0.002-0.108c-0.253 21.354-6.027 41.306-15.956 58.564l0.31-0.584zM535.040 176.214c-7.707-7.864-18.425-12.754-30.285-12.8h-0.009c-11.735 0.043-22.318 4.94-29.853 12.786l-0.013 0.014c-4.025 3.718-7.215 8.277-9.297 13.404l-0.090 0.25c-2.092 4.778-3.34 10.34-3.413 16.186v0.027c0.072 6.019 1.32 11.728 3.524 16.934l-0.11-0.294c2.172 5.377 5.361 9.936 9.361 13.63l0.025 0.023c7.858 7.339 18.443 11.845 30.080 11.845s22.222-4.506 30.106-11.868l-0.026 0.024c3.888-3.809 7.052-8.34 9.278-13.378l0.109-0.275c1.892-4.813 2.989-10.387 2.989-16.217 0-0.149-0.001-0.297-0.002-0.445v0.023c0.001-0.127 0.002-0.277 0.002-0.427 0-11.53-4.736-21.954-12.369-29.432l-0.007-0.007zM554.667 384c0-23.564-19.103-42.667-42.667-42.667s-42.667 19.103-42.667 42.667v0 170.667c0 23.564 19.103 42.667 42.667 42.667s42.667-19.103 42.667-42.667v0z" />
<glyph unicode="&#xe910;" glyph-name="alert" data-tags="alert" d="M193.604 42.667c-21.314 0.198-41.198 6.143-58.231 16.355l0.524-0.291c-34.755 21.316-57.588 59.101-57.588 102.219 0 21.463 5.658 41.605 15.563 59.015l-0.309-0.59 311.77 534.063c9.777 16.301 22.834 29.673 38.346 39.527l0.481 0.285c17.156 10.971 38.080 17.487 60.526 17.487 9.733 0 19.18-1.225 28.196-3.53l-0.786 0.17c31.050-7.763 56.573-27.276 72.082-53.426l0.294-0.535 311.415-533.436c9.619-16.674 15.393-36.626 15.645-57.906l0.001-0.074c0.011-0.61 0.018-1.33 0.018-2.052 0-63.935-51.148-115.925-114.759-117.281l-0.126-0.002zM478.814 710.042l-311.211-533.103c-2.635-4.679-4.187-10.271-4.187-16.226 0-12.025 6.329-22.572 15.838-28.491l0.142-0.082c4.208-2.531 9.271-4.059 14.685-4.138h622.102c16.795 0.966 30.048 14.821 30.048 31.771 0 0.469-0.010 0.936-0.030 1.4l0.002-0.066c-0.055 6.035-1.655 11.684-4.424 16.585l0.089-0.172-310.972 532.646c-4.164 7.060-10.891 12.232-18.873 14.269l-0.212 0.046c-2.095 0.541-4.501 0.852-6.979 0.852-5.757 0-11.123-1.677-15.635-4.569l0.116 0.069c-4.323-2.753-7.854-6.376-10.419-10.645l-0.081-0.145zM554.667 384v170.667c0 23.564-19.103 42.667-42.667 42.667s-42.667-19.103-42.667-42.667v0-170.667c0-23.564 19.103-42.667 42.667-42.667s42.667 19.103 42.667 42.667v0zM535.040 176.214c7.64 7.485 12.376 17.909 12.376 29.439 0 0.15-0.001 0.3-0.002 0.45v-0.023c0.001 0.126 0.002 0.274 0.002 0.423 0 5.83-1.097 11.404-3.095 16.527l0.106-0.31c-2.335 5.313-5.499 9.844-9.379 13.646l-0.007 0.007c-7.849 7.694-18.61 12.443-30.48 12.443-5.77 0-11.279-1.122-16.319-3.16l0.292 0.104c-5.313-2.336-9.843-5.5-13.646-9.38l-0.007-0.007c-4.025-3.718-7.215-8.277-9.297-13.404l-0.090-0.25c-2.052-4.914-3.295-10.616-3.413-16.593l-0.001-0.047c0.049-11.734 4.944-22.315 12.786-29.854l0.014-0.013c3.713-4.032 8.273-7.223 13.405-9.298l0.249-0.089c4.863-2.16 10.536-3.417 16.503-3.417 11.787 0 22.427 4.907 29.99 12.789l0.014 0.014z" />
<glyph unicode="&#xe911;" glyph-name="align-center" data-tags="align-center" d="M725.333 469.334h-426.667c-23.564 0-42.667 19.103-42.667 42.667s19.103 42.667 42.667 42.667v0h426.667c23.564 0 42.667-19.103 42.667-42.667s-19.103-42.667-42.667-42.667v0zM896 682.667c0 23.564-19.103 42.667-42.667 42.667v0h-682.667c-23.564 0-42.667-19.103-42.667-42.667s19.103-42.667 42.667-42.667v0h682.667c23.564 0 42.667 19.103 42.667 42.667v0zM896 341.334c0 23.564-19.103 42.667-42.667 42.667v0h-682.667c-23.564 0-42.667-19.103-42.667-42.667s19.103-42.667 42.667-42.667v0h682.667c23.564 0 42.667 19.103 42.667 42.667v0zM768 170.667c0 23.564-19.103 42.667-42.667 42.667v0h-426.667c-23.564 0-42.667-19.103-42.667-42.667s19.103-42.667 42.667-42.667v0h426.667c23.564 0 42.667 19.103 42.667 42.667v0z" />
<glyph unicode="&#xe912;" glyph-name="align-justify" data-tags="align-justify" d="M853.333 469.334h-682.667c-23.564 0-42.667 19.103-42.667 42.667s19.103 42.667 42.667 42.667v0h682.667c23.564 0 42.667-19.103 42.667-42.667s-19.103-42.667-42.667-42.667v0zM896 682.667c0 23.564-19.103 42.667-42.667 42.667v0h-682.667c-23.564 0-42.667-19.103-42.667-42.667s19.103-42.667 42.667-42.667v0h682.667c23.564 0 42.667 19.103 42.667 42.667v0zM896 341.334c0 23.564-19.103 42.667-42.667 42.667v0h-682.667c-23.564 0-42.667-19.103-42.667-42.667s19.103-42.667 42.667-42.667v0h682.667c23.564 0 42.667 19.103 42.667 42.667v0zM896 170.667c0 23.564-19.103 42.667-42.667 42.667v0h-682.667c-23.564 0-42.667-19.103-42.667-42.667s19.103-42.667 42.667-42.667v0h682.667c23.564 0 42.667 19.103 42.667 42.667v0z" />
<glyph unicode="&#xe913;" glyph-name="align-left" data-tags="align-left" d="M682.667 469.334h-512c-23.564 0-42.667 19.103-42.667 42.667s19.103 42.667 42.667 42.667v0h512c23.564 0 42.667-19.103 42.667-42.667s-19.103-42.667-42.667-42.667v0zM896 682.667c0 23.564-19.103 42.667-42.667 42.667v0h-682.667c-23.564 0-42.667-19.103-42.667-42.667s19.103-42.667 42.667-42.667v0h682.667c23.564 0 42.667 19.103 42.667 42.667v0zM896 341.334c0 23.564-19.103 42.667-42.667 42.667v0h-682.667c-23.564 0-42.667-19.103-42.667-42.667s19.103-42.667 42.667-42.667v0h682.667c23.564 0 42.667 19.103 42.667 42.667v0zM725.333 170.667c0 23.564-19.103 42.667-42.667 42.667v0h-512c-23.564 0-42.667-19.103-42.667-42.667s19.103-42.667 42.667-42.667v0h512c23.564 0 42.667 19.103 42.667 42.667v0z" />
<glyph unicode="&#xe914;" glyph-name="align-right" data-tags="align-right" d="M853.333 469.334h-512c-23.564 0-42.667 19.103-42.667 42.667s19.103 42.667 42.667 42.667v0h512c23.564 0 42.667-19.103 42.667-42.667s-19.103-42.667-42.667-42.667v0zM896 682.667c0 23.564-19.103 42.667-42.667 42.667v0h-682.667c-23.564 0-42.667-19.103-42.667-42.667s19.103-42.667 42.667-42.667v0h682.667c23.564 0 42.667 19.103 42.667 42.667v0zM896 341.334c0 23.564-19.103 42.667-42.667 42.667v0h-682.667c-23.564 0-42.667-19.103-42.667-42.667s19.103-42.667 42.667-42.667v0h682.667c23.564 0 42.667 19.103 42.667 42.667v0zM896 170.667c0 23.564-19.103 42.667-42.667 42.667v0h-512c-23.564 0-42.667-19.103-42.667-42.667s19.103-42.667 42.667-42.667v0h512c23.564 0 42.667 19.103 42.667 42.667v0z" />
<glyph unicode="&#xe915;" glyph-name="amazon-pay-fill" data-tags="amazon-pay-fill" d="M938.667 165.927c-0.010-39.27-31.842-71.103-71.112-71.113h-711.109c-39.27 0.010-71.103 31.842-71.113 71.112v521.482c0.010 39.27 31.842 71.103 71.112 71.113h711.109c39.27-0.010 71.103-31.842 71.113-71.112v-0.001zM805.333 302.221c-59.028-25.444-127.514-44.113-199.103-52.687l-3.564-0.348c-21.483-2.522-43.093-4.147-64.742-4.74-5.595-0.151-12.182-0.236-18.788-0.236-34.958 0-69.356 2.401-103.037 7.047l3.903-0.441c-31.186 4.225-57.805 9.357-83.91 15.791l5.404-1.126c-60.131 14.509-112.8 34.228-162.228 59.4l4.152-1.919c-13.035 6.519-25.779 13.781-38.665 20.745-5.632 3.11-9.186 2.219-12.151-3.115v-2.517c1.719-2.671 3.525-4.995 5.514-7.147l-0.031 0.034c50.805-45.799 110.885-82.471 176.943-106.775l3.797-1.223c28.23-10.573 61.761-19.581 96.359-25.455l3.344-0.469c17.847-3.123 39.354-5.504 61.196-6.615l1.323-0.054c4.446-0.149 8.887-0.294 13.333-0.593 1.155-0.078 2.219-0.229 3.257-0.453l-0.147 0.027h26.223c0.891 0.197 1.956 0.349 3.042 0.423l0.069 0.004c23.989 0.716 46.798 2.845 69.162 6.322l-3.089-0.395c35.57 5.367 67 12.953 97.338 22.943l-4.15-1.183c47.070 14.939 88.022 35.138 125.173 60.494l-1.632-1.051c4.465 2.794 8.343 5.825 11.879 9.211l-0.026-0.025c2.118 1.872 3.446 4.595 3.446 7.629 0 4.968-3.563 9.103-8.272 9.991l-0.063 0.010c-1.038 0.22-2.232 0.346-3.454 0.346-2.846 0-5.532-0.683-7.904-1.894l0.099 0.046zM231.556 387.84c-0.004-0.184-0.006-0.401-0.006-0.618 0-1.087 0.056-2.16 0.167-3.218l-0.011 0.132c0-0.027-0.001-0.058-0.001-0.090 0-3.366 2.711-6.099 6.069-6.135h0.003q13.116-0.218 26.223 0c0.074-0.003 0.161-0.005 0.249-0.005 3.224 0 5.837 2.613 5.837 5.837 0 0.090-0.002 0.18-0.006 0.27v-0.013c0.096 0.926 0.151 2 0.151 3.087 0 0.217-0.002 0.433-0.007 0.649l0.001-0.032v89.924c1.335-1.037 2.074-1.775 2.816-2.368 15.152-13.157 35.074-21.175 56.868-21.175 6.675 0 13.175 0.752 19.419 2.177l-0.584-0.112c24.399 5.020 44.208 21.168 54.175 42.787l0.195 0.472c7.902 16.021 12.629 34.844 12.884 54.745l0.001 0.086c0.182 2.672 0.286 5.792 0.286 8.936 0 19.051-3.807 37.213-10.701 53.767l0.342-0.926c-9.041 23.461-29.227 40.795-53.891 45.667l-0.462 0.076c-4.002 0.892-8.149 1.186-12.147 1.779h-10.389c-1.779-0.299-3.554-0.427-5.333-0.742-17.929-2.254-33.959-8.974-47.373-19.002l0.26 0.186c-2.961-2.074-5.777-4.442-8.738-6.665-0.149 0.742-0.427 1.186-0.593 1.779-0.593 3.413-1.037 6.827-1.63 10.24-0.078 4.629-3.849 8.352-8.49 8.352-0.349 0-0.694-0.021-1.032-0.062l0.041 0.004h-14.37c-8.742 0.149-10.24-1.481-10.24-10.074zM270.080 559.258v52.297c-0.008 0.1-0.013 0.217-0.013 0.334 0 1.552 0.829 2.91 2.068 3.657l0.019 0.011c14.050 10.393 31.719 16.636 50.846 16.636 2.022 0 4.028-0.070 6.015-0.207l-0.268 0.015c19.672-0.651 36.093-13.856 41.547-31.831l0.083-0.318c3.887-11.125 6.131-23.949 6.131-37.298 0-1.315-0.022-2.625-0.065-3.929l0.005 0.19c0.026-0.945 0.041-2.058 0.041-3.174 0-12.392-1.855-24.35-5.303-35.613l0.227 0.861c-5.552-20.792-24.218-35.857-46.402-35.857-2.294 0-4.55 0.161-6.758 0.473l0.254-0.029c-17.668 1.172-33.661 7.503-46.714 17.484l0.208-0.152c-1.18 0.863-1.937 2.242-1.937 3.799 0 0.123 0.005 0.244 0.014 0.364l-0.001-0.016c0.145 17.493 0.004 34.825 0.004 52.305zM471.117 461.334c9.68-5.116 21.157-8.119 33.336-8.119 4.82 0 9.53 0.47 14.087 1.368l-0.46-0.075c19.35 3.068 36.398 11.239 50.21 23.077l-0.136-0.114c0.593 0.427 1.186 0.887 2.074 1.481 0.738-4.74 1.331-9.186 2.223-13.632 0.305-3.52 3.128-6.292 6.644-6.514l0.021-0.001c6.827-0.149 13.483-0.149 20.297 0 0.007 0 0.015 0 0.023 0 3.216 0 5.832 2.571 5.904 5.77v0.007c0.098 0.868 0.154 1.873 0.154 2.892 0 0.183-0.002 0.366-0.005 0.549v-0.027 131.563c0.001 0.144 0.001 0.315 0.001 0.486 0 5.471-0.377 10.854-1.107 16.124l0.069-0.61c-1.472 16.011-10.45 29.651-23.34 37.505l-0.216 0.122c-7.78 4.446-16.904 7.543-26.621 8.709l-0.344 0.034c-4.442 0.593-8.887 1.037-13.478 1.63h-14.818c-1.070-0.208-2.343-0.36-3.638-0.424l-0.065-0.003c-12.961-0.505-25.244-2.367-37.033-5.454l1.193 0.265c-7.556-1.924-14.818-4.74-22.225-7.253-3.819-1.082-6.571-4.537-6.571-8.636 0-0.35 0.020-0.696 0.059-1.036l-0.004 0.041c0.145-4.147-0.149-8.294 0-12.297 0.145-6.071 2.662-7.701 8.444-6.071 9.63 2.517 19.405 5.184 29.184 7.108 8.546 1.834 18.364 2.884 28.428 2.884 6.223 0 12.351-0.402 18.362-1.18l-0.71 0.075c8.368-0.564 15.73-4.45 20.854-10.336l0.031-0.037c4.075-5.592 6.52-12.599 6.52-20.178 0-0.042 0-0.084 0-0.126v0.006c0.427-10.24 0.299-20.591 0.427-30.814-0.041-0.651-0.146-1.258-0.309-1.841l0.015 0.062c-0.095-0.006-0.206-0.009-0.318-0.009-0.466 0-0.918 0.058-1.35 0.167l0.038-0.008c-11.563 2.988-25.134 5.151-39.051 6.042l-0.655 0.034c-2.563 0.216-5.546 0.339-8.559 0.339-11.706 0-22.979-1.858-33.538-5.295l0.766 0.216c-16.052-5.036-28.949-16.1-36.287-30.474l-0.159-0.344c-3.787-7.952-5.998-17.281-5.998-27.127 0-3.92 0.351-7.759 1.022-11.485l-0.058 0.391c1.998-17.111 12.145-31.483 26.399-39.294l0.267-0.134zM484.151 501.927c-1.209 3.655-1.907 7.862-1.907 12.232 0 4.199 0.644 8.248 1.839 12.053l-0.077-0.285c2.954 9.57 10.552 16.874 20.094 19.361l0.198 0.044c6.679 2.083 14.359 3.283 22.319 3.283 2.994 0 5.949-0.17 8.854-0.5l-0.356 0.033c10.368-1.037 20.591-2.961 30.963-4.297 2.074-0.294 2.667-1.182 2.667-3.26-0.149-5.926 0-11.849 0-17.775 0-5.777-0.149-11.703 0-17.493 0.008-0.092 0.012-0.2 0.012-0.309 0-1.44-0.771-2.7-1.923-3.389l-0.018-0.010c-12.896-9.808-28.705-16.446-45.924-18.475l-0.446-0.043c-1.793-0.261-3.864-0.41-5.969-0.41-5.36 0-10.495 0.965-15.24 2.731l0.302-0.098c-7.529 2.72-13.238 8.829-15.353 16.434l-0.041 0.171zM633.634 644.433c24.444-60.16 48.742-120.448 73.331-180.595 1.113-2.236 1.764-4.87 1.764-7.656 0-2.536-0.539-4.945-1.51-7.12l0.044 0.111c-4.147-9.186-7.253-18.667-11.554-27.703-3.499-8.043-10.282-14.098-18.61-16.541l-0.206-0.052c-4.004-1.041-8.6-1.639-13.336-1.639-2.034 0-4.042 0.11-6.019 0.325l0.245-0.022c-3.11 0.299-6.225 1.037-9.335 1.186-4.147 0.299-6.221-1.63-6.37-5.926-0.149-4.147-0.149-8.294 0-12.297 0.149-6.827 2.372-9.924 9.186-11.093 6.122-1.263 13.347-2.163 20.717-2.506l0.317-0.012c1.067-0.078 2.312-0.122 3.566-0.122 19.425 0 36.369 10.626 45.336 26.382l0.135 0.257c3.947 6.421 7.772 13.922 11.010 21.728l0.399 1.086q44.002 111.334 87.706 222.963c0.871 1.977 1.543 4.275 1.905 6.675l0.019 0.152c0.593 3.558-1.037 5.333-4.591 5.483-8.299 0.149-16.448 0-24.747 0-0.19 0.014-0.413 0.022-0.637 0.022-4.099 0-7.58-2.648-8.825-6.326l-0.019-0.066c-0.593-1.63-1.335-3.413-1.929-5.035l-43.093-124.002c-3.11-9.037-6.221-17.92-9.63-27.554-0.593 1.331-0.887 2.074-1.182 2.812q-24 66.445-48 133.039c-2.522 6.963-5.188 14.080-7.855 21.039-0.986 3.445-4.107 5.924-7.807 5.924-0.068 0-0.135-0.001-0.203-0.002h0.010c-9.481 0.149-18.961 0.299-28.442 0.149-0.105 0.010-0.228 0.015-0.352 0.015-2.243 0-4.062-1.819-4.062-4.062 0-0.516 0.096-1.010 0.272-1.464l-0.009 0.028c0.668-2.94 1.477-5.468 2.475-7.898l-0.12 0.329zM880.004 355.098c-7.657 2.506-16.541 4.248-25.732 4.871l-0.341 0.019c-4.616 0.412-9.986 0.647-15.41 0.647-11.731 0-23.206-1.099-34.326-3.199l1.144 0.18c-18.767-3.063-35.509-9.884-50.077-19.688l0.447 0.284c-1.856-1.148-3.391-2.637-4.557-4.392l-0.034-0.054c-0.567-1.016-0.901-2.228-0.901-3.519 0-0.537 0.058-1.060 0.167-1.564l-0.009 0.048c0.427-1.929 2.517-2.372 4.446-2.223 0.132-0.004 0.287-0.006 0.442-0.006 0.785 0 1.556 0.055 2.312 0.161l-0.087-0.010 28.89 3.115c8.529 1.004 18.41 1.577 28.424 1.577 5.010 0 9.987-0.143 14.926-0.426l-0.684 0.031c6.617-0.623 12.661-1.773 18.492-3.43l-0.717 0.174c5.5-1.401 9.502-6.309 9.502-12.153 0-0.259-0.008-0.516-0.023-0.772l0.002 0.035c0.001-0.176 0.002-0.385 0.002-0.593 0-10.101-1.57-19.835-4.48-28.972l0.186 0.675c-6.503-22.618-13.214-41.216-20.954-59.268l1.246 3.268c-0.486-1.059-0.894-2.298-1.162-3.588l-0.020-0.115c-0.593-3.703 1.481-5.926 5.035-5.184 2.313 0.522 4.32 1.612 5.934 3.117l-0.008-0.007c5.592 5.156 10.728 10.573 15.483 16.317l0.222 0.276c14.689 19.413 25.41 42.663 30.484 67.955l0.181 1.080c1.037 4.446 1.779 9.037 2.517 13.483 0.299 6.963 0.299 14.221 0.299 21.483-1.19 6.234-5.931 8.602-11.264 10.381z" />
<glyph unicode="&#xe916;" glyph-name="amazon-pay" data-tags="amazon-pay" d="M57.562 324.002c15.974-8.602 31.637-17.493 47.919-25.651 55.278-27.049 120.344-51.346 187.972-69.363l7.684-1.741c26.53-6.4 69.973-14.507 97.062-18.125 36.565-4.758 79.369-7.741 122.77-8.246l0.669-0.006c6.178 0 16.239 0.115 22.46 0.269 26.722 0.614 53.444 2.765 80.013 5.833 93.831 13.429 178.351 36.403 258.297 68.381l-7.502-2.649c2.828 1.428 6.165 2.265 9.698 2.265 1.513 0 2.99-0.153 4.417-0.446l-0.141 0.024c5.875-1.054 10.276-6.126 10.276-12.227 0-3.595-1.528-6.833-3.971-9.099l-0.008-0.007c-4.402-3.951-9.213-7.689-14.281-11.074l-0.465-0.292c-43.981-30.046-94.681-55.040-148.797-72.407l-4.163-1.154c-31.533-10.186-70.393-19.581-110.162-26.306l-5.175-0.723c-23.357-3.523-51.548-6.163-80.12-7.322l-1.587-0.051c-1.075-0.077-2.803-0.269-3.84-0.461h-32.427c-1.075 0.192-2.765 0.384-3.84 0.461-5.547 0.307-11.059 0.461-16.435 0.614-21.5 0.96-56.171 4.608-77.402 8.141-47.728 8.644-89.212 19.767-129.286 33.881l5.809-1.783c-85.755 34.481-159.677 79.499-224.8 134.594l1.193-0.984c-2.463 2.587-4.685 5.448-6.602 8.518l-0.131 0.224v3.072c3.533 6.447 7.987 7.518 14.895 3.84zM298.065 719.616c5.069-0.768 10.138-1.229 15.053-2.304 31.134-6.161 56.15-27.621 67.202-56.053l0.211-0.617c8.069-19.465 12.755-42.072 12.755-65.773 0-3.767-0.118-7.506-0.352-11.214l0.026 0.507c-0.148-24.67-5.959-47.948-16.197-68.647l0.411 0.918c-12.437-27.453-37.004-47.513-66.671-53.497l-0.598-0.101c-6.984-1.611-15.005-2.534-23.24-2.534-26.989 0-51.663 9.914-70.578 26.298l0.135-0.114c-0.768 0.768-1.707 1.536-3.379 2.918v-111.189c0-1.536 0-3.072-0.154-4.608 0-0.023 0-0.050 0-0.077 0-4.199-3.404-7.603-7.603-7.603-0.027 0-0.054 0-0.081 0h0.004c-10.748-0.154-21.653-0.154-32.401 0-0.015 0-0.032 0-0.050 0-4.131 0-7.479 3.349-7.479 7.479 0 0.071 0.001 0.141 0.003 0.211v-0.010c-0.154 1.536-0.154 3.072-0.154 4.608v321.438c0 10.594 1.997 12.591 12.591 12.591h17.664c0.401 0.055 0.865 0.087 1.336 0.087 5.667 0 10.269-4.562 10.333-10.214v-0.006c0.768-4.147 1.382-8.448 1.997-12.595 0.123-0.798 0.338-1.516 0.636-2.188l-0.022 0.055c3.84 2.918 7.219 5.683 10.906 8.294 16.583 11.321 36.259 19.46 57.481 23.051l0.866 0.121 6.605 0.939c4.301 0 8.444 0 12.745-0.171zM212.523 590.763c0-21.653 0.154-43.153 0-64.806l-0.038-0.384c0.114-1.951 1.128-3.643 2.629-4.68l0.020-0.013c15.874-12.108 35.625-19.902 57.119-21.317l0.319-0.017c2.404-0.345 5.179-0.542 8.001-0.542 27.433 0 50.52 18.607 57.329 43.89l0.095 0.415c3.933 12.866 6.197 27.655 6.197 42.973 0 1.414-0.019 2.823-0.058 4.227l0.004-0.207c0.039 1.257 0.061 2.735 0.061 4.219 0 16.626-2.778 32.603-7.894 47.492l0.307-1.027c-6.853 22.609-27.136 38.934-51.353 39.771l-0.094 0.003c-2.203 0.163-4.771 0.256-7.362 0.256-23.58 0-45.36-7.707-62.958-20.738l0.287 0.203c-1.523-1.012-2.541-2.681-2.649-4.593l-0.001-0.015 0.038-0.461c0.154-21.645 0-42.991 0-64.649zM546.709 719.924c5.547-0.768 11.055-1.229 16.585-1.997 12.496-1.477 23.828-5.342 33.912-11.134l-0.431 0.228c16.223-9.927 27.335-26.838 29.162-46.444l0.018-0.241c0.798-5.466 1.298-11.847 1.381-18.329l0.001-0.099v-164.894c0-0.96-0.077-2.56-0.154-3.571-0.154-3.976-3.382-7.15-7.367-7.215h-0.006c-8.29-0.154-16.738-0.154-25.033 0-4.388 0.21-7.914 3.628-8.292 7.95l-0.002 0.033c-1.075 5.547-1.839 11.059-2.761 16.896-0.935-0.496-1.742-1.063-2.469-1.717l0.011 0.010c-16.949-14.375-38.003-24.417-61.167-28.161l-0.725-0.097c-5.192-1.077-11.158-1.694-17.269-1.694-14.958 0-29.053 3.695-41.422 10.221l0.485-0.233c-17.942 9.78-30.465 27.547-32.827 48.394l-0.027 0.289c-0.773 4.186-1.215 9.004-1.215 13.924 0 12.042 2.649 23.466 7.395 33.72l-0.207-0.497c9.244 18.283 25.236 32.025 44.619 38.099l0.531 0.143c12.095 4.062 26.022 6.406 40.496 6.406 3.746 0 7.456-0.157 11.123-0.465l-0.479 0.032c18.312-1.442 35.092-4.109 51.407-7.978l-2.259 0.452c0.614-0.154 1.229 0 1.997-0.154 0.126 0.589 0.235 1.318 0.302 2.059l0.005 0.075c-0.154 12.749 0 25.493-0.461 38.242 0 0.046 0 0.101 0 0.156 0 9.404-3.054 18.095-8.224 25.136l0.083-0.118c-6.344 7.365-15.447 12.201-25.687 12.892l-0.114 0.006c-6.703 0.937-14.447 1.472-22.316 1.472-12.328 0-24.35-1.313-35.932-3.807l1.117 0.202c-12.134-2.3-24.111-5.679-36.092-8.751-7.219-1.843-10.291 0.154-10.445 7.522-0.154 5.069 0.154 10.138 0 15.206-0.036 0.335-0.057 0.725-0.057 1.119 0 5.097 3.437 9.39 8.119 10.69l0.078 0.018c9.062 3.068 18.121 6.447 27.49 8.905 12.88 3.068 28.067 5.312 43.604 6.26l0.77 0.038c1.382 0.154 2.914 0.461 4.45 0.614 6.161 0.051 12.305 0.051 18.295 0.188zM582.34 545.306c0 7.373-0.154 14.588 0 21.961 0 2.458-0.768 3.686-3.226 3.994-12.902 1.707-25.493 4.147-38.4 5.222-2.987 0.346-7.872 0.614-10.906 0.614-9.763-0.231-19.092-1.674-27.973-4.184l0.79 0.191c-12.057-3.123-21.471-12.135-25.105-23.706l-0.068-0.251c-1.256-4.361-2.046-9.393-2.187-14.586l-0.002-0.083c0.137-5.439 0.984-10.626 2.45-15.546l-0.108 0.421c3.281-9.249 10.117-16.535 18.824-20.338l0.223-0.087c5.451-2.087 11.755-3.295 18.342-3.295 2.631 0 5.217 0.193 7.745 0.565l-0.287-0.035c21.882 2.516 41.471 10.725 57.725 23.092l-0.287-0.21c1.32 0.993 2.195 2.518 2.303 4.25l0.001 0.017v0.341c-0.162 7.215 0.145 14.281 0.145 21.653zM779.84 510.443c3.994 11.827 7.987 23.040 11.823 34.095l53.449 153.579c0.768 2.133 1.707 4.147 2.458 6.298 1.741 4.557 5.974 7.781 10.988 8.020l0.028 0.001 0.806-0.038c10.138 0 20.425 0.154 30.562 0 4.301 0 6.298-2.458 5.683-6.758-0.646-3.24-1.494-6.068-2.575-8.778l0.118 0.335q-53.85-138.048-108.425-275.827c-4.762-11.208-9.492-20.491-14.764-29.415l0.632 1.157c-11.224-19.837-32.18-33.007-56.214-33.007-1.566 0-3.119 0.056-4.656 0.166l0.206-0.012c-9.563 0.5-18.476 1.596-27.184 3.269l1.229-0.197c-8.294 1.382-11.209 5.222-11.362 13.653q-0.23 7.548 0 15.202c0.154 5.376 2.761 7.68 7.983 7.373 3.84-0.307 7.68-1.229 11.52-1.536 1.997-0.23 5.261-0.427 7.296-0.427 5.874 0.148 11.493 0.918 16.893 2.245l-0.539-0.112c10.62 2.941 19.072 10.436 23.255 20.194l0.088 0.23c5.222 11.213 9.216 23.040 14.285 34.249 1.214 2.564 1.923 5.57 1.923 8.742 0 3.42-0.824 6.648-2.285 9.495l0.055-0.117q-45.611 111.731-90.765 223.458c-0.993 2.493-1.993 5.625-2.8 8.832l-0.118 0.554c-0.768 3.84 1.075 6.912 4.915 6.912 11.823 0.154 23.497 0 35.17-0.154 0.008 0 0.017 0 0.026 0 4.622 0 8.524-3.078 9.769-7.297l0.018-0.072c3.226-8.602 6.605-17.203 9.677-25.958q29.717-82.411 59.435-164.634c0.474-1.109 0.781-2.031 1.395-3.721zM981.333 298.351c-1.075-5.547-1.997-11.209-3.226-16.738-6.438-32.628-19.71-61.398-38.309-85.903l0.374 0.514c-6.327-7.388-12.697-14.098-19.391-20.472l-0.112-0.106c-2.062-1.733-4.53-3.056-7.237-3.808l-0.136-0.032c-4.454-1.075-7.061 1.843-6.293 6.293 0.457 1.807 0.981 3.341 1.612 4.82l-0.080-0.212c7.879 18.107 16.142 41.11 23.105 64.672l1.164 4.593c3.412 10.292 5.38 22.139 5.38 34.446 0 0.471-0.003 0.941-0.009 1.41l0.001-0.072c0.019 0.286 0.030 0.62 0.030 0.956 0 7.207-4.924 13.264-11.591 14.99l-0.108 0.024c-6.33 1.844-13.842 3.306-21.553 4.1l-0.561 0.047c-5.515 0.359-11.958 0.564-18.448 0.564-12.062 0-23.959-0.707-35.651-2.082l1.419 0.136c-11.977-1.229-23.804-2.611-35.78-3.84-0.768-0.077-2.035-0.154-2.842-0.154h-0.538c-2.304-0.154-4.915 0.461-5.547 2.765-0.19 0.655-0.302 1.408-0.307 2.186v0.003c0.052 1.457 0.444 2.812 1.099 4.002l-0.023-0.046c1.616 2.080 3.491 3.858 5.6 5.321l0.083 0.055c17.513 11.66 38.221 20.068 60.508 23.827l0.932 0.13c12.165 2.155 26.302 3.5 40.712 3.722l0.214 0.003c5.338 0 13.978-0.346 19.277-0.806 11.911-1.016 22.883-3.131 33.412-6.272l-1.165 0.298c6.605-2.133 12.442-5.069 13.978-12.749z" />
<glyph unicode="&#xe917;" glyph-name="amazon" data-tags="amazon" d="M502.916 42.667c-143.3 6.618-270.118 72.053-357.763 172.541l-0.513 0.601c-11.657 13.201 1.707 19.375 9.425 14.229 125.658-76.284 321.946-201.941 638.575-51.942 12.855 6.345 22.797-3.413 9.425-20.57-74.572-71.205-175.825-115.027-287.313-115.027-4.162 0-8.309 0.061-12.442 0.182l0.606-0.014zM508.036 705.067c-46.388-5.292-83.445-39.63-92.768-84.161l-0.122-0.695-126.003 11.657c0 84.506 80.060 178.799 230.916 178.799 150.515 0 192.512-97.707 192.512-141.086v-252.16c0-47.142 55.373-90.513 55.373-90.513l-97.37-96c-27.801 24.991-53.187 51.189-76.683 79.033l-0.97 1.18c-77.487-121.374-314.573-113.66-314.573 74.057 0 174.857 207.087 198.34 290.56 201.429 0.009 67.375 8.922 118.63-60.851 118.46zM568.896 507.409c-57.775-1.886-144.346-18.172-144.346-99.085 0-87.087 144.346-107.657 144.346 29.487zM833.924 100.608c-9.429-7.714-16.286-4.625-11.145 6.515s33.088 79.714 21.76 94.293c-11.145 14.229-63.428 7.373-82.287 5.487-18.513-1.707-22.285-3.413-24 0.516-3.942 9.771 37.201 26.569 64.286 29.999 26.914 3.085 70.285 1.37 78.857-9.771 0.928-5.733 1.458-12.342 1.458-19.074 0-19.943-4.65-38.8-12.926-55.546l0.328 0.734c-8.313-20.948-20.666-38.711-36.212-53.066l-0.097-0.089z" />
<glyph unicode="&#xe918;" glyph-name="american-express" data-tags="american-express" d="M981.333 296.231v-82.897c-2.529-71.26-60.906-128.069-132.551-128.069-1.501 0-2.996 0.025-4.485 0.074l0.217-0.006h-664.704c-1.272-0.044-2.767-0.069-4.268-0.069-71.645 0-130.022 56.808-132.544 127.838l-0.006 0.23v255.543h43.328c6.827 15.39 3.584 8.077 10.423 23.313h31.258c6.827-15.236 3.584-7.923 10.428-23.313h86.174v17.37c3.584-7.616 1.792-3.81 8.307-17.37h48.047c3.913 8.38 4.237 8.836 8.307 17.37v-17.37h220.702v38.246c1.678 0.081 3.645 0.127 5.623 0.127 3.639 0 7.242-0.156 10.802-0.462l-0.463 0.032s-0.324-16.61 0.162-37.79h108.314v13.559c12.478-8.55 27.902-13.653 44.519-13.653 1.357 0 2.705 0.034 4.045 0.101l-0.188-0.008h43.652c6.827 15.39 3.584 8.073 10.423 23.313h30.946c10.586-22.857 0.324-0.764 10.752-23.313h85.999v33.37c19.2-30.020 12.702-19.657 21.5-33.37h67.755v140.19h-64.986v-28.041c-19.87 30.784-10.261 15.851-18.244 28.041h-70.524v-31.39c-10.099 22.246-7.492 16.457-14.336 31.39h-52.77c-0.653 0-3.746-0.307-3.746 0.457h-44.954c-1.166 0.060-2.531 0.093-3.904 0.093-17.225 0-33.204-5.336-46.373-14.445l0.272 0.178v14.174h-64.99v-8.077c-17.587 9.297-33.707 7.77-104.892 8.077h-186.658c-4.070-9.297-11.093-24.99-20.523-45.713-4.561 9.139-17.92 36.267-22.639 45.713h-74.927v-32.154c-12.053 26.513-7.654 16.764-14.656 32.154h-64.666c-5.547-12.041-22.315-48.764-37.623-82.133v112.457c2.529 71.26 60.906 128.069 132.551 128.069 1.501 0 2.996-0.025 4.485-0.074l-0.217 0.006h664.542c1.272 0.044 2.767 0.069 4.268 0.069 71.644 0 130.021-56.809 132.54-127.839l0.006-0.23v-212.42c-61.402 0.307-71.68 1.374-88.439-7.616v7.616c-73.783 0-87.142 2.59-105.711-7.923v7.923h-127.369v-7.77c-18.569 9.903-34.854 7.77-123.307 7.77v-8.533c-10.658 5.416-23.241 8.589-36.564 8.589-1.061 0-2.118-0.020-3.169-0.060l0.152 0.005h-94.46c-5.7-5.79-20.361-20.877-25.57-26.21-20.685 21.487-17.105 17.677-25.246 26.21h-135.351v-140.646h133.547c5.372 5.333 21.009 21.18 26.223 26.513 20.685-21.79 16.777-17.826 25.084-26.513h79.646c0 22.4 0.162 12.646 0.162 35.046 2.96-0.278 6.402-0.437 9.88-0.437 16.663 0 32.475 3.642 46.684 10.174l-0.696-0.287c0-21.184-0.162-26.061-0.162-44.497h64.499c0 28.19 0.162 11.277 0.162 38.554 10.099 0 12.544 0 15.313-0.154 0.162-1.98 0 0 0-38.4 248.875 0 237.653-1.677 255.228 6.857v-6.857c56.695 0 89.271-3.354 109.956 9.297zM307.831 483.81v82.59l-39.091-82.59h-23.778l-39.091 82.59v-82.59h-55.040l-10.423 23.313h-56.205l-10.428-23.313h-29.154l48.393 105.6h39.906l45.769-100.113v100.113h44.122l35.345-71.62 32.085 71.62h44.958v-105.6zM130.782 529.067l-18.731 42.057-18.24-42.057zM542.865 372.877c0-42.513-49.493-35.507-80.299-35.507l-0.162-35.503h-52.446l-33.212 35.046-34.692-35.046h-106.534l0.162 105.6h108.309l33.391-34.743 34.202 34.743h85.837c25.412 0 45.444-8.23 45.444-34.59zM359.3 354.897l-29.154 30.78h-67.921v-19.046h59.127v-21.487h-59.127v-21.030h66.133zM382.268 567.164v-19.051h61.568v-21.483h-61.568v-21.030h63.36v-21.79h-90.398v105.6h90.398v-22.246zM435.529 396.19l-41.207-41.754 41.207-42.816zM514.197 372.877c0 9.293-7.492 12.8-16.61 12.8h-35.021v-26.82h34.53c9.609 0 17.101 4.267 17.101 14.020zM553.451 532.57c15.475-5.026 17.92-14.016 17.92-28.036v-20.57h-27.038c-0.491 22.549 5.862 38.246-24.107 38.246h-29.321v-38.246h-26.692v105.6l63.684-0.461c21.662 0 44.629-3.046 44.629-28.036 0.004-0.18 0.006-0.392 0.006-0.604 0-12.626-7.82-23.426-18.88-27.822l-0.202-0.071zM542.541 555.887c0 9.749-9.122 11.277-17.429 11.277h-34.206v-23.317h33.707c9.293 0 17.929 1.984 17.929 12.041zM644.826 350.934c10.613-2.908 18.283-12.468 18.283-23.819 0-1.49-0.132-2.949-0.385-4.367l0.022 0.149-0.166-21.030h-27.038l0.166 17.523c0 17.98-6.191 21.030-24.107 21.030h-28.668l-0.162-38.554h-27.038l0.162 105.6h64.175c21.175 0 44.139-3.503 44.139-28.497-0.044-12.734-7.985-23.601-19.178-27.966l-0.205-0.070zM634.586 374.4c0 9.754-9.118 11.277-17.425 11.277h-34.206v-23.774h33.707c9.109 0 17.903 1.984 17.903 12.497zM615.509 589.41v-105.6h-27.529v105.6zM710.306 589.564v-23.164c-28.343 0.457-53.914 6.246-53.914-30.020 0-17.98 4.561-30.323 26.223-30.323h12.053l38.276 83.046h40.393l45.436-99.657v99.657h41.207l47.398-73.293v73.293h27.524v-105.139h-38.438l-50.812 79.083v-79.083h-54.886l-10.752 23.313h-55.868l-10.423-23.313h-31.27c-37.12 0-53.76 17.98-53.76 51.806 0 35.507 17.101 53.794 55.377 53.794zM689.131 551.924c1.63 0 3.255-0.154 5.047-0.154l-11.887-25.749c-0.287-0.022-0.623-0.034-0.961-0.034-1.644 0-3.221 0.291-4.681 0.824l0.095-0.030c-0.329 0.307-1.792 2.897-1.792 12.041 0 8.226 1.792 11.277 2.278 11.58 0.499 0.457 2.778 1.523 11.9 1.523zM706.231 385.677v-19.046h61.568v-21.487h-61.73v-21.030l62.869-0.457-0.162-21.79h-89.907l0.162 105.6h89.907v-21.79zM710.306 566.4v0zM733.773 529.067h37.12l-18.253 42.057zM852.019 334.324c0 22.707-69.547-8.533-69.547 41.754 0 21.487 17.429 31.543 38.276 31.543h54.076v-22.251h-49.493c-7.006 0-14.985-1.216-14.985-9.749 0-23.010 69.875 10.513 69.875-40.077 0-24.99-18.569-33.523-42.667-33.523h-52.489l0.162 22.549h52.446c6.699 0 14.17 1.527 14.332 9.754zM915.541 375.313c0-18.59 46.933 0.457 64-20.57v-39.313c-8.074-8.507-19.464-13.799-32.090-13.799-1.605 0-3.19 0.086-4.751 0.252l0.194-0.017h-52.122l0.162 22.554h52.122c6.677 0 13.683 1.98 13.683 9.749 0 22.251-69.547-8.533-69.547 41.754 0 21.487 17.92 31.543 38.767 31.543h53.581v-22.246h-49.024c-7.492 0-14.989-1.067-14.989-9.907zM980.855 427.58v0z" />
<glyph unicode="&#xe919;" glyph-name="android" data-tags="android" d="M255.906 303.851c0.002-0.169 0.003-0.368 0.003-0.568 0-28.838-23.378-52.215-52.215-52.215-0.061 0-0.122 0-0.183 0h0.009c-0.186-0.002-0.405-0.003-0.625-0.003-29.972 0-54.53 23.185-56.716 52.598l-0.011 0.188v220.655c2.369 29.423 26.83 52.403 56.659 52.403 0.244 0 0.487-0.002 0.73-0.005h-0.037c28.884-0.13 52.263-23.514 52.386-52.387v-0.012zM298.667 554.667h426.667v-329.617c0.019-0.533 0.030-1.159 0.030-1.787 0-28.406-22.505-51.556-50.658-52.593l-0.095-0.003h-34.611v-118.148c-0.145-70.118-95.902-69.931-85.333 0v118.148h-85.333v-118.148c10.586-69.739-84.651-70.31-85.333 0v118.148h-34.266c-28.405 0.884-51.096 24.123-51.096 52.661 0 0.606 0.010 1.209 0.030 1.809l-0.002-0.087zM877.85 524.506v-220.655c-2.132-29.59-26.661-52.788-56.608-52.788-0.268 0-0.535 0.002-0.802 0.006h0.040c-28.963 0.099-52.404 23.601-52.404 52.578 0 0.072 0 0.144 0 0.216v-0.011 220.655c0 0.044 0 0.097 0 0.15 0 28.857 23.393 52.25 52.25 52.25 0.054 0 0.108 0 0.162 0h-0.008c0.327 0.007 0.712 0.011 1.098 0.011 29.747 0 54.117-23.024 56.261-52.225l0.011-0.185zM616.623 769.455l32.717 60.292c0.599 0.975 0.954 2.155 0.954 3.419 0 3.645-2.955 6.601-6.601 6.601-2.51 0-4.693-1.401-5.809-3.465l-0.017-0.035-33.058-60.809c-27.311 12.261-59.197 19.402-92.751 19.402s-65.44-7.142-94.221-19.988l1.47 0.586-33.229 60.971c-1.131 2.105-3.318 3.512-5.833 3.512-3.645 0-6.601-2.955-6.601-6.601 0-1.265 0.356-2.447 0.973-3.451l-0.016 0.029 32.717-60.463c-64.054-31.369-107.659-95.564-108.934-170.072l-0.002-0.168h426.667c-1.283 74.543-44.645 138.661-107.3 169.736l-1.124 0.504zM426.667 682.667h-42.667v42.667h42.667zM640 682.667h-42.667v42.667h42.667z" />
<glyph unicode="&#xe91a;" glyph-name="angular" data-tags="angular" d="M888 697.357l-57.532-498.871-318.468-177.152-318.468 177.152-57.532 498.871 376 134.643zM512 742.4l-235.383-528.896h88.094l47.45 118.349h200.107l47.36-118.349h87.962zM512 570.518l68.945-165.777h-137.89z" />
<glyph unicode="&#xe91b;" glyph-name="aperture" data-tags="aperture" d="M857.118 176.824c50.954 69.139 81.549 156.008 81.549 250.022 0 60.928-12.85 118.855-35.988 171.219l1.069-2.711c-0.645 1.532-1.254 2.769-1.922 3.968l0.105-0.204c-61.252 135.625-187.46 232.287-337.857 250.817l-2.073 0.208c-1.058 0.175-2.065 0.38-3.127 0.478-14.364 1.729-30.998 2.716-47.862 2.716-138.324 0-261.145-66.381-338.343-169.025l-0.781-1.085c-1.835-1.986-3.496-4.186-4.928-6.542l-0.103-0.182c-50.946-69.135-81.536-155.997-81.536-250.003 0-60.928 12.85-118.855 35.987-171.218l-1.069 2.712c0.65-1.539 1.257-2.774 1.922-3.973l-0.109 0.214c60.698-134.294 185.044-230.327 333.497-250.155l2.187-0.239c1.209-0.269 2.717-0.507 4.249-0.66l0.171-0.014c15.504-2.021 33.435-3.175 51.635-3.175 138.098 0 260.682 66.419 337.552 169.054l0.786 1.097c1.818 1.973 3.466 4.16 4.885 6.499l0.103 0.182zM576.090 315.734h-128.158l-64.064 110.933 64.055 110.933h128.145l64.068-110.933zM170.667 426.667c0.054 52.018 11.825 101.273 32.814 145.287l-0.878-2.046 146.773-254.174h-159.842c-11.888 33.042-18.793 71.17-18.867 110.9v0.034zM674.624 537.6h159.834c11.961-33.098 18.876-71.295 18.876-111.108 0-51.954-11.776-101.158-32.805-145.088l0.873 2.026zM790.797 622.934h-293.594l80.077 138.645c88.748-17.884 163.44-68.111 212.805-137.591l0.711-1.055zM481.527 766.456l-146.935-254.455-79.851 138.291c56.231 64.647 135.794 107.73 225.44 116.063l1.346 0.101zM233.186 230.4h293.628l-80.068-138.667c-88.767 17.88-163.476 68.116-212.848 137.612l-0.712 1.055zM542.485 86.861l146.927 254.473 79.868-138.283c-56.23-64.654-135.797-107.742-225.449-116.072l-1.345-0.101z" />
<glyph unicode="&#xe91c;" glyph-name="apple-pay-fill" data-tags="apple-pay-fill" d="M950.857 213.334c0-70.692-57.308-128-128-128v0h-621.713c-70.692 0-128 57.308-128 128v0 426.667c0 70.692 57.308 128 128 128v0h621.713c70.692 0 128-57.308 128-128v0zM330.057 446.934c0.255 18.1 9.846 33.904 24.164 42.844l0.216 0.126c-9.281 13.174-24.22 21.825-41.206 22.398l-0.087 0.002c-18.59 1.067-34.441-10.513-43.277-10.513-8.99 0-22.4 10.057-37.030 9.754-19.977-0.542-37.224-11.725-46.33-28.066l-0.142-0.278c-5.459-13.030-8.63-28.172-8.63-44.055 0-26.092 8.558-50.185 23.021-69.625l-0.221 0.311c9.446-13.867 20.877-29.107 35.81-28.497 14.17 0.61 19.81 9.143 36.877 9.143 17.216 0 22.093-9.143 37.026-8.99 15.543 0.303 25.143 13.867 34.743 27.733 6.149 9.206 11.322 19.806 14.984 31.086l0.256 0.914c-17.801 7.903-30.023 25.362-30.174 45.694v0.019zM301.564 530.59c7.379 8.697 11.867 20.050 11.867 32.451 0 1.289-0.048 2.566-0.144 3.83l0.010-0.168c-13.406-1.275-25.115-7.657-33.32-17.152l-0.054-0.064c-7.526-8.412-12.126-19.58-12.126-31.821 0-1.028 0.032-2.049 0.096-3.061l-0.007 0.138c0.206-0.004 0.45-0.006 0.694-0.006 13.307 0 25.177 6.154 32.92 15.771l0.063 0.082zM498.133 550.857h-78.020v-207.846h32.307v71.010h44.646c1.057-0.061 2.295-0.095 3.54-0.095 36.451 0 66.001 29.55 66.001 66.001 0 0.937-0.020 1.869-0.058 2.796l0.004-0.133c0.047 0.93 0.074 2.019 0.074 3.115 0 36.027-29.206 65.233-65.233 65.233-1.147 0-2.288-0.030-3.42-0.088l0.159 0.007zM489.446 441.144h-37.026v82.59h37.18c1.596 0.233 3.439 0.365 5.313 0.365 21.443 0 38.827-17.383 38.827-38.827 0-0.998-0.038-1.987-0.112-2.966l0.008 0.13c0.061-0.817 0.096-1.769 0.096-2.729 0-21.502-17.431-38.933-38.933-38.933-1.888 0-3.744 0.134-5.56 0.394l0.208-0.024zM642.743 495.847c-2.062 0.279-4.447 0.438-6.868 0.438-27.347 0-49.955-20.286-53.597-46.631l-0.032-0.283h29.107c3.234 12.366 14.306 21.343 27.475 21.343 1.057 0 2.101-0.058 3.128-0.171l-0.127 0.011c19.806 0 30.78-9.143 30.78-26.21v-11.43l-40.23-2.436c-37.483-2.287-57.749-17.677-57.749-44.343 0.327-24.977 20.651-45.099 45.675-45.099 1.838 0 3.652 0.109 5.433 0.32l-0.216-0.021c0.449-0.014 0.978-0.021 1.508-0.021 19.561 0 36.657 10.557 45.9 26.285l0.136 0.25h0.61v-24.99h29.867v103.62h0.154c0 30.020-24.077 49.37-60.954 49.37zM636.8 408.99l35.81 2.287v-11.733c-0.821-18.694-16.175-33.539-34.998-33.539-1.198 0-2.382 0.060-3.549 0.178l0.147-0.012c-17.22 0-28.19 8.23-28.19 20.877 0 13.107 10.513 20.574 30.78 21.943zM826.667 493.867l-37.943-122.82h-0.61l-37.943 122.82h-33.98l54.707-151.313-2.897-9.143c-2.016-12.376-12.628-21.708-25.419-21.708-0.654 0-1.302 0.024-1.943 0.072l0.086-0.005c-2.59 0-7.467 0.307-9.446 0.461v-24.994c3.314-0.49 7.14-0.77 11.031-0.77 0.462 0 0.922 0.004 1.382 0.012l-0.069-0.001c31.543 0 46.323 12.036 59.277 48.457l56.533 158.933z" />
<glyph unicode="&#xe91d;" glyph-name="apple-pay" data-tags="apple-pay" d="M287.053 513.549c-19.998-12.46-33.199-34.191-33.565-59.031l-0.001-0.053c0.221-28.001 17.023-52.025 41.062-62.754l0.44-0.175c-5.311-16.709-12.533-31.246-21.61-44.403l0.362 0.555c-13.065-19.042-26.411-37.696-47.697-38.123-20.501-0.282-27.405 12.318-51.004 12.318-23.492 0-31.108-11.891-50.611-12.599-20.54-0.751-36.092 20.215-49.122 39.292-19.634 26.268-31.437 59.384-31.437 95.258 0 21.868 4.386 42.711 12.326 61.699l-0.392-1.057c12.791 22.771 36.484 38.086 63.816 38.867l0.107 0.002c20.254 0.427 38.729-13.35 51.042-13.35 12.032 0 33.886 15.983 59.405 14.507 23.523-0.853 44.089-12.792 56.726-30.721l0.153-0.229zM167.991 547.84c-0.091 1.29-0.143 2.794-0.143 4.311 0 16.763 6.336 32.046 16.745 43.584l-0.051-0.058c11.378 13.114 27.486 21.863 45.642 23.578l0.276 0.021c0.095-1.368 0.15-2.964 0.15-4.573 0-17.188-6.209-32.925-16.507-45.091l0.084 0.102c-10.662-13.382-26.958-21.883-45.239-21.883-0.336 0-0.672 0.003-1.007 0.009l0.050-0.001zM484.774 597.564c1.331 0.071 2.889 0.111 4.457 0.111 49.511 0 89.647-40.136 89.647-89.647 0-1.523-0.038-3.038-0.113-4.542l0.008 0.212c0.049-1.115 0.077-2.423 0.077-3.737 0-50.086-40.602-90.688-90.688-90.688-1.719 0-3.426 0.048-5.121 0.142l0.235-0.010h-61.431v-97.664h-44.42v285.845zM421.845 446.669h51.038c2.184-0.315 4.706-0.495 7.27-0.495 29.597 0 53.589 23.993 53.589 53.589 0 1.344-0.049 2.676-0.147 3.995l0.010-0.176c0.085 1.129 0.134 2.446 0.134 3.774 0 29.455-23.878 53.333-53.333 53.333-2.606 0-5.168-0.187-7.673-0.548l0.286 0.034h-51.2zM589.632 371.149c0 36.663 27.866 57.805 79.334 60.864l55.42 3.383v15.838c0 23.313-15.232 35.951-42.394 35.951-1.227 0.137-2.649 0.215-4.090 0.215-18.139 0-33.39-12.368-37.778-29.131l-0.060-0.272h-40.043c5.127 36.636 36.257 64.525 73.9 64.525 3.322 0 6.594-0.217 9.801-0.638l-0.377 0.040c50.722 0 83.716-26.697 83.716-67.913v-142.229h-41.037v34.308h-0.892c-12.901-22.005-36.436-36.547-63.367-36.547-0.722 0-1.442 0.010-2.159 0.031l0.105-0.002c-2.101-0.248-4.536-0.39-7.003-0.39-34.441 0-62.433 27.607-63.055 61.9l-0.001 0.058zM724.527 389.197v16.124l-49.259-3.063c-27.733-1.6-42.24-12.028-42.24-30.076 0-17.297 15.125-28.723 38.724-28.723 1.397-0.144 3.018-0.226 4.659-0.226 25.824 0 46.902 20.323 48.112 45.847l0.004 0.109zM805.039 235.077v34.313c2.812-0.286 9.54-0.747 13.065-0.747 0.746-0.056 1.616-0.088 2.493-0.088 17.589 0 32.176 12.851 34.886 29.675l0.027 0.202 4.096 12.599-75.068 208.107h46.345l52.177-168.819h0.892l52.215 168.819h45.167l-77.879-218.509c-17.724-50.005-38.118-66.594-81.399-66.594-6.022 0.023-11.931 0.398-17.737 1.104l0.721-0.071z" />
<glyph unicode="&#xe91e;" glyph-name="apple-store-ios" data-tags="apple-store-ios" d="M896 728.38v-603.426c-0.010-45.442-36.845-82.277-82.286-82.287h-603.427c-45.442 0.010-82.277 36.845-82.287 82.286v603.427c0.010 45.442 36.845 82.277 82.286 82.287h603.427c45.442-0.010 82.277-36.845 82.287-82.286v-0.001zM544.926 367.36h-106.487l147.123 254.72c2.774 4.839 4.411 10.638 4.411 16.818 0 18.927-15.343 34.27-34.27 34.27-12.484 0-23.408-6.675-29.4-16.65l-0.086-0.155-15.223-26.419-15.279 26.419c-6.034 10.301-17.049 17.11-29.653 17.11-18.916 0-34.251-15.335-34.251-34.251 0-6.312 1.707-12.225 4.685-17.303l-0.087 0.161 35.145-60.706-112.124-194.014h-87.428c-0.114 0.001-0.248 0.002-0.382 0.002-18.936 0-34.287-15.351-34.287-34.287s15.351-34.287 34.287-34.287c0.134 0 0.269 0.001 0.403 0.002h311.831c3.317 6.278 5.263 13.722 5.263 21.62 0 24.975-19.466 45.404-44.053 46.943l-0.135 0.007zM378.79 263.458c-10.861 14.272-27.857 23.39-46.982 23.39-7.506 0-14.684-1.404-21.285-3.965l0.402 0.137-24.503-42.355c-2.891-4.916-4.598-10.829-4.598-17.141 0-18.916 15.335-34.251 34.251-34.251 12.605 0 23.619 6.809 29.566 16.949l0.087 0.161zM786.287 333.086c-0.056 18.914-15.373 34.231-34.282 34.287h-89.148q-67.388 116.48-100.992 174.857c-16.463-17.051-26.606-40.296-26.606-65.91 0-18.662 5.384-36.067 14.685-50.745l-0.23 0.388q42.432-72.986 126.857-219.58c6.034-10.301 17.049-17.11 29.653-17.11 18.916 0 34.251 15.335 34.251 34.251 0 6.312-1.707 12.225-4.685 17.303l0.087-0.161-33.579 58.138h49.702c0.010 0 0.022 0 0.034 0 18.917 0 34.253 15.336 34.253 34.253 0 0.011 0 0.021 0 0.032v-0.002z" />
<glyph unicode="&#xe91f;" glyph-name="apple-store" data-tags="apple-store" d="M938.667 426.667c0-235.641-191.025-426.667-426.667-426.667s-426.667 191.025-426.667 426.667c0 235.641 191.025 426.667 426.667 426.667v0c0.022 0 0.047 0 0.073 0 235.601 0 426.594-190.993 426.594-426.594 0-0.026 0-0.051 0-0.077v0.004zM512 798.294c-205.244 0-371.627-166.383-371.627-371.627s166.383-371.627 371.627-371.627c205.244 0 371.627 166.383 371.627 371.627v0c0 0.009 0 0.019 0 0.030 0 205.227-166.37 371.597-371.597 371.597-0.010 0-0.021 0-0.031 0h0.002zM527.484 686.119c6.186 10.594 17.501 17.598 30.451 17.598 19.41 0 35.145-15.735 35.145-35.145 0-6.46-1.743-12.512-4.784-17.713l0.090 0.166-150.537-260.646h108.902c25.253-1.685 45.098-22.581 45.098-48.113 0-8.065-1.98-15.667-5.481-22.348l0.127 0.265h-319.147c-19.384 0-35.098 15.714-35.098 35.098s15.714 35.098 35.098 35.098h89.468l114.581 198.537-35.772 62.097c-2.951 5.035-4.694 11.087-4.694 17.547 0 19.41 15.735 35.145 35.145 35.145 12.95 0 24.265-7.005 30.361-17.432l0.090-0.166 15.313-27.008zM342.711 225.549c-6.217-10.464-17.462-17.367-30.319-17.367-19.412 0-35.149 15.737-35.149 35.149 0 6.366 1.692 12.337 4.652 17.487l-0.091-0.171 25.118 43.354c6.396 2.539 13.806 4.011 21.56 4.011 19.539 0 36.895-9.348 47.839-23.816l0.109-0.151zM758.366 390.196c19.384 0 35.098-15.714 35.098-35.098s-15.714-35.098-35.098-35.098h-50.752l34.236-59.354c2.952-5.035 4.695-11.088 4.695-17.549 0-19.411-15.735-35.146-35.146-35.146-12.95 0-24.264 7.004-30.361 17.431l-0.090 0.166q-86.451 149.931-129.707 224.687c-9.312 14.618-14.842 32.435-14.842 51.543 0 26.176 10.377 49.928 27.241 67.367l-0.026-0.027q34.56-59.354 103.398-178.923z" />
<glyph unicode="&#xe920;" glyph-name="apple" data-tags="apple" d="M870.541 227.316c-23.241-70.11-102.874-225.946-195.465-227.281-53.534 0-84.966 34.103-145.549 34.103-62.49 0-96.401-32.96-144.41-34.103-91.823-2.854-179.84 168.602-204.224 238.507-16.893 45.989-26.903 99.091-27.433 154.461l-0.002 0.236c0 168.981 112.973 252.045 219.277 253.76 51.439 0 116.975-37.547 145.549-37.547 27.055 0 100.975 44.77 168.606 39.437 66.322-1.573 124.648-34.455 160.953-84.382l0.408-0.589c-57.093-30.374-95.303-89.493-95.303-157.537 0-1.412 0.016-2.821 0.049-4.225l-0.004 0.209c0-0.051 0-0.11 0-0.17 0-78.593 48.007-145.974 116.298-174.417l1.249-0.461zM512.764 649.869c-0.27 3.717-0.424 8.053-0.424 12.425 0 48.207 18.719 92.042 49.284 124.634l-0.092-0.099c32.488 36.358 77.629 60.816 128.45 66.423l0.907 0.081c0.546-5.252 0.857-11.347 0.857-17.515 0-46.502-17.69-88.873-46.708-120.75l0.129 0.144c-29.451-39.834-76.254-65.38-129.023-65.38-1.189 0-2.374 0.013-3.556 0.039l0.176-0.003z" />
<glyph unicode="&#xe921;" glyph-name="archive-fill" data-tags="archive-fill" d="M853.333 810.667h-682.667c-47.106-0.056-85.277-38.227-85.333-85.328v-85.338c0.056-47.106 38.227-85.277 85.328-85.333h0.005v-384c0.080-70.66 57.34-127.92 127.992-128h426.674c70.66 0.080 127.92 57.34 128 127.992v384.008c47.106 0.056 85.277 38.227 85.333 85.328v85.338c-0.056 47.106-38.227 85.277-85.328 85.333h-0.005zM627.499 311.168l-85.333-85.333c-7.718-7.724-18.384-12.501-30.165-12.501s-22.447 4.777-30.165 12.501l-85.334 85.334c-7.41 7.665-11.977 18.12-11.977 29.641 0 23.564 19.103 42.667 42.667 42.667 11.521 0 21.976-4.567 29.653-11.989l12.489-12.485v78.332c0 23.564 19.103 42.667 42.667 42.667s42.667-19.103 42.667-42.667v0-78.332l12.501 12.497c7.665 7.41 18.12 11.977 29.641 11.977 23.564 0 42.667-19.103 42.667-42.667 0-11.521-4.567-21.976-11.989-29.653l0.012 0.012zM853.333 640h-682.667v85.333h682.667z" />
<glyph unicode="&#xe922;" glyph-name="archive" data-tags="archive" d="M853.333 810.667h-682.667c-47.106-0.056-85.277-38.227-85.333-85.328v-85.338c0.056-47.106 38.227-85.277 85.328-85.333h0.005v-384c0.080-70.66 57.34-127.92 127.992-128h426.674c70.66 0.080 127.92 57.34 128 127.992v384.008c47.106 0.056 85.277 38.227 85.333 85.328v85.338c-0.056 47.106-38.227 85.277-85.328 85.333h-0.005zM768 170.667c-0.022-23.555-19.111-42.645-42.665-42.667h-426.669c-23.555 0.022-42.645 19.111-42.667 42.665v384.002h512zM853.333 640h-682.667v85.333h682.667zM396.501 311.168c-7.41 7.665-11.977 18.12-11.977 29.641 0 23.564 19.103 42.667 42.667 42.667 11.521 0 21.976-4.567 29.653-11.989l12.489-12.485v78.332c0 23.564 19.103 42.667 42.667 42.667s42.667-19.103 42.667-42.667v0-78.332l12.501 12.497c7.665 7.41 18.12 11.977 29.641 11.977 23.564 0 42.667-19.103 42.667-42.667 0-11.521-4.567-21.976-11.989-29.653l-85.321-85.321c-7.718-7.724-18.384-12.501-30.165-12.501s-22.447 4.777-30.165 12.501v0z" />
<glyph unicode="&#xe923;" glyph-name="archived-fill" data-tags="archived-fill" d="M853.333 810.667h-682.667c-47.106-0.056-85.277-38.227-85.333-85.328v-85.338c0.056-47.106 38.227-85.277 85.328-85.333h0.005v-384c0.080-70.66 57.34-127.92 127.992-128h426.674c70.66 0.080 127.92 57.34 128 127.992v384.008c47.106 0.056 85.277 38.227 85.333 85.328v85.338c-0.056 47.106-38.227 85.277-85.328 85.333h-0.005zM597.333 384h-170.667c-23.564 0-42.667 19.103-42.667 42.667s19.103 42.667 42.667 42.667v0h170.667c23.564 0 42.667-19.103 42.667-42.667s-19.103-42.667-42.667-42.667v0zM853.333 640h-682.667v85.333h682.667z" />
<glyph unicode="&#xe924;" glyph-name="archived" data-tags="archived" d="M853.333 810.667h-682.667c-47.106-0.056-85.277-38.227-85.333-85.328v-85.338c0.056-47.106 38.227-85.277 85.328-85.333h0.005v-384c0.080-70.66 57.34-127.92 127.992-128h426.674c70.66 0.080 127.92 57.34 128 127.992v384.008c47.106 0.056 85.277 38.227 85.333 85.328v85.338c-0.056 47.106-38.227 85.277-85.328 85.333h-0.005zM768 170.667c-0.022-23.555-19.111-42.645-42.665-42.667h-426.669c-23.555 0.022-42.645 19.111-42.667 42.665v384.002h512zM853.333 640h-682.667v85.333h682.667zM384 426.667c0 23.564 19.103 42.667 42.667 42.667v0h170.667c23.564 0 42.667-19.103 42.667-42.667s-19.103-42.667-42.667-42.667v0h-170.667c-23.564 0-42.667 19.103-42.667 42.667v0z" />
<glyph unicode="&#xe925;" glyph-name="arrow-down-c" data-tags="arrow-down-c" d="M938.833 719.668c-21.151 63.811-70.552 113.061-132.988 133.58l-1.472 0.419c-87.76 22.994-188.511 36.197-292.346 36.197-104.074 0-205.051-13.264-301.331-38.193l8.325 1.83c-63.825-21.128-113.084-70.539-133.581-132.989l-0.418-1.471c-23.007-87.777-36.217-188.548-36.217-292.405 0-104.065 13.263-205.032 38.191-301.304l-1.829 8.323c21.151-63.811 70.552-113.061 132.988-133.58l1.472-0.419c87.743-22.894 188.494-36.088 292.309-36.194h0.065c103.884 0.111 204.633 13.31 300.756 38.036l-8.383-1.83 0.606 0.166c63.821 21.135 113.078 70.542 133.581 132.989l0.418 1.471c23.006 87.776 36.215 188.545 36.215 292.399 0 104.064-13.263 205.030-38.19 301.3l1.83-8.325zM856.32 155.499c-12.708-33.956-38.982-60.291-72.049-72.802l-0.847-0.281c-81.485-21.341-175.033-33.594-271.443-33.594-96.311 0-189.765 12.228-278.896 35.217l7.725-1.691c-33.858 12.648-60.142 38.78-72.715 71.689l-0.283 0.844c-21.396 81.573-33.682 175.222-33.682 271.74 0 96.328 12.237 189.797 35.241 278.939l-1.692-7.724c12.635 33.866 38.772 60.155 71.689 72.715l0.844 0.283c81.59 21.383 175.258 33.661 271.794 33.661 96.314 0 189.774-12.222 278.912-35.198l-7.73 1.691c33.858-12.648 60.142-38.78 72.715-71.689l0.283-0.844c21.396-81.573 33.682-175.222 33.682-271.74 0-96.328-12.237-189.797-35.241-278.939l1.692 7.724zM691.499 446.166c7.725-7.718 12.503-18.384 12.503-30.165s-4.778-22.447-12.503-30.165v0l-149.333-149.333c-7.718-7.724-18.384-12.501-30.165-12.501s-22.447 4.777-30.165 12.501l-149.334 149.334c-8.036 7.769-13.026 18.647-13.026 30.69 0 23.564 19.103 42.667 42.667 42.667 12.043 0 22.92-4.989 30.678-13.014l76.513-76.509v206.332c0 23.564 19.103 42.667 42.667 42.667s42.667-19.103 42.667-42.667v0-206.332l76.501 76.497c7.718 7.725 18.384 12.503 30.165 12.503s22.447-4.778 30.165-12.503v0z" />
<glyph unicode="&#xe926;" glyph-name="arrow-down-circle-fill" data-tags="arrow-down-circle-fill" d="M512 853.334c-235.641 0-426.667-191.025-426.667-426.667s191.025-426.667 426.667-426.667c235.641 0 426.667 191.025 426.667 426.667v0c-0.269 235.533-191.134 426.397-426.641 426.667h-0.026zM712.832 396.502l-170.667-170.667c-7.738-7.691-18.403-12.445-30.178-12.445s-22.44 4.754-30.18 12.447l-170.665 170.665c-8.036 7.769-13.026 18.647-13.026 30.69 0 23.564 19.103 42.667 42.667 42.667 12.043 0 22.92-4.989 30.678-13.014l97.872-97.842v238.332c0 23.564 19.103 42.667 42.667 42.667s42.667-19.103 42.667-42.667v0-238.332l97.835 97.83c7.665 7.41 18.12 11.977 29.641 11.977 23.564 0 42.667-19.103 42.667-42.667 0-11.521-4.567-21.976-11.989-29.653l0.012 0.012z" />
<glyph unicode="&#xe927;" glyph-name="arrow-down-circle" data-tags="arrow-down-circle" d="M512 853.334c-235.641 0-426.667-191.025-426.667-426.667s191.025-426.667 426.667-426.667c235.641 0 426.667 191.025 426.667 426.667v0c-0.269 235.533-191.134 426.397-426.641 426.667h-0.026zM512 85.334c-188.513 0-341.333 152.82-341.333 341.333s152.82 341.333 341.333 341.333c188.513 0 341.333-152.82 341.333-341.333v0c-0.223-188.423-152.91-341.11-341.312-341.333h-0.022zM712.832 456.832c7.725-7.718 12.503-18.384 12.503-30.165s-4.778-22.447-12.503-30.165v0l-170.667-170.667c-7.738-7.691-18.403-12.445-30.178-12.445s-22.44 4.754-30.18 12.447l-170.665 170.665c-8.036 7.769-13.026 18.647-13.026 30.69 0 23.564 19.103 42.667 42.667 42.667 12.043 0 22.92-4.989 30.678-13.014l97.872-97.842v238.332c0 23.564 19.103 42.667 42.667 42.667s42.667-19.103 42.667-42.667v0-238.332l97.835 97.83c7.718 7.725 18.384 12.503 30.165 12.503s22.447-4.778 30.165-12.503v0z" />
<glyph unicode="&#xe928;" glyph-name="arrow-down-fill-c" data-tags="arrow-down-fill-c" d="M938.833 719.668c-21.151 63.811-70.552 113.061-132.988 133.58l-1.472 0.419c-87.76 22.994-188.511 36.197-292.346 36.197-104.074 0-205.051-13.264-301.331-38.193l8.325 1.83c-63.821-21.135-113.078-70.542-133.581-132.989l-0.418-1.471c-23.007-87.777-36.217-188.548-36.217-292.405 0-104.065 13.263-205.032 38.191-301.304l-1.829 8.323c21.151-63.811 70.552-113.061 132.988-133.58l1.472-0.419c87.743-22.894 188.494-36.088 292.309-36.194h0.065c103.884 0.111 204.633 13.31 300.756 38.036l-8.383-1.83 0.606 0.166c63.821 21.135 113.078 70.542 133.581 132.989l0.418 1.471c23.006 87.776 36.215 188.545 36.215 292.399 0 104.064-13.263 205.030-38.19 301.3l1.83-8.325zM691.499 385.835l-149.333-149.333c-7.718-7.724-18.384-12.501-30.165-12.501s-22.447 4.777-30.165 12.501l-149.334 149.334c-8.036 7.769-13.026 18.647-13.026 30.69 0 23.564 19.103 42.667 42.667 42.667 12.043 0 22.92-4.989 30.678-13.014l76.513-76.509v206.332c0 23.564 19.103 42.667 42.667 42.667s42.667-19.103 42.667-42.667v0-206.332l76.501 76.497c7.665 7.41 18.12 11.977 29.641 11.977 23.564 0 42.667-19.103 42.667-42.667 0-11.521-4.567-21.976-11.989-29.653l0.012 0.012z" />
<glyph unicode="&#xe929;" glyph-name="arrow-down-left" data-tags="arrow-down-left" d="M840.832 755.499c-7.718 7.725-18.384 12.503-30.165 12.503s-22.447-4.778-30.165-12.503v0l-524.501-524.497v357.798c0 23.564-19.103 42.667-42.667 42.667s-42.667-19.103-42.667-42.667v0-460.8c0.097-23.525 19.141-42.57 42.657-42.667h460.809c23.564 0 42.667 19.103 42.667 42.667s-19.103 42.667-42.667 42.667v0h-357.798l524.497 524.501c7.725 7.718 12.503 18.384 12.503 30.165s-4.778 22.447-12.503 30.165v0z" />
<glyph unicode="&#xe92a;" glyph-name="arrow-down-right" data-tags="arrow-down-right" d="M853.333 588.8c0 23.564-19.103 42.667-42.667 42.667s-42.667-19.103-42.667-42.667v0-357.79l-524.501 524.489c-7.665 7.41-18.12 11.977-29.641 11.977-23.564 0-42.667-19.103-42.667-42.667 0-11.521 4.567-21.976 11.989-29.653l524.485-524.489h-357.798c-23.564 0-42.667-19.103-42.667-42.667s19.103-42.667 42.667-42.667v0h460.8c23.525 0.097 42.57 19.141 42.667 42.657v0.009z" />
<glyph unicode="&#xe92b;" glyph-name="arrow-down-round-fill" data-tags="arrow-down-round-fill" d="M746.667 810.667h-469.333c-82.433-0.102-149.231-66.9-149.333-149.323v-469.343c0.102-82.433 66.9-149.231 149.323-149.333h469.343c82.433 0.102 149.231 66.9 149.333 149.323v469.343c-0.102 82.433-66.9 149.231-149.323 149.333h-0.010zM712.832 396.502l-170.667-170.667c-7.738-7.691-18.403-12.445-30.178-12.445s-22.44 4.754-30.18 12.447l-170.665 170.665c-8.036 7.769-13.026 18.647-13.026 30.69 0 23.564 19.103 42.667 42.667 42.667 12.043 0 22.92-4.989 30.678-13.014l97.872-97.842v238.332c0 23.564 19.103 42.667 42.667 42.667s42.667-19.103 42.667-42.667v0-238.332l97.835 97.83c7.665 7.41 18.12 11.977 29.641 11.977 23.564 0 42.667-19.103 42.667-42.667 0-11.521-4.567-21.976-11.989-29.653l0.012 0.012z" />
<glyph unicode="&#xe92c;" glyph-name="arrow-down-round" data-tags="arrow-down-round" d="M746.667 810.667h-469.333c-82.433-0.102-149.231-66.9-149.333-149.323v-469.343c0.102-82.433 66.9-149.231 149.323-149.333h469.343c82.433 0.102 149.231 66.9 149.333 149.323v469.343c-0.102 82.433-66.9 149.231-149.323 149.333h-0.010zM810.667 192c-0.041-35.33-28.67-63.959-63.996-64h-469.337c-35.33 0.041-63.959 28.67-64 63.996v469.337c0.041 35.33 28.67 63.959 63.996 64h469.337c35.33-0.041 63.959-28.67 64-63.996v-0.004zM712.832 456.832c7.725-7.718 12.503-18.384 12.503-30.165s-4.778-22.447-12.503-30.165v0l-170.667-170.667c-7.738-7.691-18.403-12.445-30.178-12.445s-22.44 4.754-30.18 12.447l-170.665 170.665c-8.036 7.769-13.026 18.647-13.026 30.69 0 23.564 19.103 42.667 42.667 42.667 12.043 0 22.92-4.989 30.678-13.014l97.872-97.842v238.332c0 23.564 19.103 42.667 42.667 42.667s42.667-19.103 42.667-42.667v0-238.332l97.835 97.83c7.718 7.725 18.384 12.503 30.165 12.503s22.447-4.778 30.165-12.503v0z" />
<glyph unicode="&#xe92d;" glyph-name="arrow-down" data-tags="arrow-down" d="M840.832 456.832c-7.718 7.725-18.384 12.503-30.165 12.503s-22.447-4.778-30.165-12.503v0l-225.835-225.83v494.332c0 23.564-19.103 42.667-42.667 42.667s-42.667-19.103-42.667-42.667v0-494.332l-225.835 225.83c-7.665 7.41-18.12 11.977-29.641 11.977-23.564 0-42.667-19.103-42.667-42.667 0-11.521 4.567-21.976 11.989-29.653l298.655-298.655c7.738-7.691 18.403-12.445 30.178-12.445s22.44 4.754 30.18 12.447l298.665 298.665c7.717 7.717 12.49 18.377 12.49 30.153 0 11.788-4.783 22.459-12.515 30.178l-0.001 0.001z" />
<glyph unicode="&#xe92e;" glyph-name="arrow-from-down" data-tags="arrow-from-down" d="M896 768c0-23.564-19.103-42.667-42.667-42.667v0h-682.667c-23.564 0-42.667 19.103-42.667 42.667s19.103 42.667 42.667 42.667v0h682.667c23.564 0 42.667-19.103 42.667-42.667v0zM737.835 371.499l-183.168-183.164v366.332c0 23.564-19.103 42.667-42.667 42.667s-42.667-19.103-42.667-42.667v0-366.332l-183.168 183.164c-7.665 7.41-18.12 11.977-29.641 11.977-23.564 0-42.667-19.103-42.667-42.667 0-11.521 4.567-21.976 11.989-29.653l255.958-255.962c7.74-7.7 18.412-12.46 30.195-12.46s22.455 4.76 30.197 12.462l255.968 255.972c7.41 7.665 11.977 18.12 11.977 29.641 0 23.564-19.103 42.667-42.667 42.667-11.521 0-21.976-4.567-29.653-11.989l0.012 0.012z" />
<glyph unicode="&#xe92f;" glyph-name="arrow-from-left" data-tags="arrow-from-left" d="M682.667 426.667c0-23.564-19.103-42.667-42.667-42.667v0h-366.332l183.164-183.168c8.036-7.769 13.026-18.647 13.026-30.69 0-23.564-19.103-42.667-42.667-42.667-12.043 0-22.92 4.989-30.678 13.014l-255.978 255.974c-7.707 7.74-12.472 18.415-12.472 30.204s4.765 22.464 12.474 30.205l-0.001-0.002 255.966 255.962c7.769 8.036 18.647 13.026 30.69 13.026 23.564 0 42.667-19.103 42.667-42.667 0-12.043-4.989-22.92-13.014-30.678l-183.176-183.18h366.332c23.564 0 42.667-19.103 42.667-42.667v0zM853.333 810.667c-23.564 0-42.667-19.103-42.667-42.667v0-682.667c0-23.564 19.103-42.667 42.667-42.667s42.667 19.103 42.667 42.667v0 682.667c0 23.564-19.103 42.667-42.667 42.667v0z" />
<glyph unicode="&#xe930;" glyph-name="arrow-from-right" data-tags="arrow-from-right" d="M883.465 396.463l-255.966-255.962c-7.665-7.41-18.12-11.977-29.641-11.977-23.564 0-42.667 19.103-42.667 42.667 0 11.521 4.567 21.976 11.989 29.653l183.152 183.156h-366.332c-23.564 0-42.667 19.103-42.667 42.667s19.103 42.667 42.667 42.667v0h366.332l-183.164 183.168c-7.41 7.665-11.977 18.12-11.977 29.641 0 23.564 19.103 42.667 42.667 42.667 11.521 0 21.976-4.567 29.653-11.989l255.954-255.95c7.707-7.74 12.472-18.415 12.472-30.204s-4.765-22.464-12.474-30.205l0.001 0.002zM170.667 810.667c-23.564 0-42.667-19.103-42.667-42.667v0-682.667c0-23.564 19.103-42.667 42.667-42.667s42.667 19.103 42.667 42.667v0 682.667c0 23.564-19.103 42.667-42.667 42.667v0z" />
<glyph unicode="&#xe931;" glyph-name="arrow-from-up" data-tags="arrow-from-up" d="M896 85.334c0-23.564-19.103-42.667-42.667-42.667v0h-682.667c-23.564 0-42.667 19.103-42.667 42.667s19.103 42.667 42.667 42.667v0h682.667c23.564 0 42.667-19.103 42.667-42.667v0zM286.165 481.835l183.168 183.164v-366.332c0-23.564 19.103-42.667 42.667-42.667s42.667 19.103 42.667 42.667v0 366.332l183.168-183.164c7.665-7.41 18.12-11.977 29.641-11.977 23.564 0 42.667 19.103 42.667 42.667 0 11.521-4.567 21.976-11.989 29.653l-255.958 255.962c-7.739 7.702-18.411 12.464-30.195 12.464s-22.456-4.762-30.197-12.466l-255.968-255.972c-7.41-7.665-11.977-18.12-11.977-29.641 0-23.564 19.103-42.667 42.667-42.667 11.521 0 21.976 4.567 29.653 11.989l-0.012-0.012z" />
<glyph unicode="&#xe932;" glyph-name="arrow-left-c" data-tags="arrow-left-c" d="M938.833 719.668c-21.111 63.835-70.528 113.101-132.99 133.582l-1.47 0.417c-87.758 22.976-188.506 36.168-292.335 36.168-104.069 0-205.043-13.253-301.325-38.163l8.329 1.829c-63.833-21.132-113.102-70.539-133.623-132.988l-0.419-1.471c-22.989-87.769-36.189-188.53-36.189-292.373s13.2-204.606 38.013-300.698l-1.824 8.325 0.166-0.627c21.151-63.811 70.552-113.061 132.988-133.58l1.472-0.419c87.695-22.89 188.39-36.076 292.149-36.168h0.057c104.164 0.104 205.187 13.35 301.563 38.169l-8.396-1.835c63.821 21.135 113.078 70.542 133.581 132.989l0.418 1.471c22.976 87.764 36.168 188.519 36.168 292.356 0 104.076-13.253 205.057-38.163 301.347l1.829-8.329zM856.32 155.499c-12.635-33.866-38.772-60.155-71.689-72.715l-0.844-0.283c-81.593-21.39-175.263-33.672-271.802-33.672-96.317 0-189.78 12.225-278.919 35.209l7.728-1.691c-33.937 12.713-60.256 38.977-72.764 72.027l-0.281 0.847c-21.342 81.486-33.596 175.033-33.596 271.443 0 96.311 12.229 189.766 35.218 278.897l-1.691-7.726c12.635 33.866 38.772 60.155 71.689 72.715l0.844 0.283c81.592 21.38 175.264 33.655 271.802 33.655 96.316 0 189.779-12.219 278.921-35.192l-7.731 1.69c33.872-12.609 60.16-38.757 72.679-71.69l0.281-0.843c21.39-81.586 33.671-175.25 33.671-271.783 0-96.311-12.225-189.767-35.209-278.9l1.691 7.728zM704 426.667c0-23.564-19.103-42.667-42.667-42.667v0h-206.332l76.497-76.501c8.036-7.769 13.026-18.647 13.026-30.69 0-23.564-19.103-42.667-42.667-42.667-12.043 0-22.92 4.989-30.678 13.014l-149.345 149.345c-7.725 7.718-12.503 18.384-12.503 30.165s4.778 22.447 12.503 30.165v0l149.333 149.333c7.769 8.036 18.647 13.026 30.69 13.026 23.564 0 42.667-19.103 42.667-42.667 0-12.043-4.989-22.92-13.014-30.678l-76.509-76.513h206.332c23.564 0 42.667-19.103 42.667-42.667v0z" />
<glyph unicode="&#xe933;" glyph-name="arrow-left-circle-fill" data-tags="arrow-left-circle-fill" d="M512 853.334c-235.641 0-426.667-191.025-426.667-426.667s191.025-426.667 426.667-426.667c235.641 0 426.667 191.025 426.667 426.667v0c-0.269 235.533-191.134 426.397-426.641 426.667h-0.026zM682.667 384h-238.332l97.83-97.835c8.036-7.769 13.026-18.647 13.026-30.69 0-23.564-19.103-42.667-42.667-42.667-12.043 0-22.92 4.989-30.678 13.014l-170.679 170.679c-7.691 7.738-12.445 18.403-12.445 30.178s4.754 22.44 12.447 30.18l170.665 170.665c7.769 8.036 18.647 13.026 30.69 13.026 23.564 0 42.667-19.103 42.667-42.667 0-12.043-4.989-22.92-13.014-30.678l-97.842-97.872h238.332c23.564 0 42.667-19.103 42.667-42.667s-19.103-42.667-42.667-42.667v0z" />
<glyph unicode="&#xe934;" glyph-name="arrow-left-circle" data-tags="arrow-left-circle" d="M512 853.334c-235.641 0-426.667-191.025-426.667-426.667s191.025-426.667 426.667-426.667c235.641 0 426.667 191.025 426.667 426.667v0c-0.269 235.533-191.134 426.397-426.641 426.667h-0.026zM512 85.334c-188.513 0-341.333 152.82-341.333 341.333s152.82 341.333 341.333 341.333c188.513 0 341.333-152.82 341.333-341.333v0c-0.223-188.423-152.91-341.11-341.312-341.333h-0.022zM725.333 426.667c0-23.564-19.103-42.667-42.667-42.667v0h-238.332l97.83-97.835c8.036-7.769 13.026-18.647 13.026-30.69 0-23.564-19.103-42.667-42.667-42.667-12.043 0-22.92 4.989-30.678 13.014l-170.679 170.679c-7.691 7.738-12.445 18.403-12.445 30.178s4.754 22.44 12.447 30.18l170.665 170.665c7.769 8.036 18.647 13.026 30.69 13.026 23.564 0 42.667-19.103 42.667-42.667 0-12.043-4.989-22.92-13.014-30.678l-97.842-97.872h238.332c23.564 0 42.667-19.103 42.667-42.667v0z" />
<glyph unicode="&#xe935;" glyph-name="arrow-left-fill-c" data-tags="arrow-left-fill-c" d="M938.833 719.625c-21.092 63.857-70.516 113.143-132.99 133.625l-1.47 0.417c-87.766 22.977-188.524 36.17-292.363 36.17-104.079 0-205.062-13.254-301.355-38.165l8.331 1.829c-63.816-21.138-113.067-70.545-133.568-132.988l-0.418-1.471c-22.989-87.769-36.189-188.53-36.189-292.373s13.2-204.606 38.013-300.698l-1.824 8.325 0.166-0.585c21.121-63.84 70.532-113.114 132.989-133.623l1.471-0.418c87.695-22.89 188.39-36.076 292.149-36.168h0.057c104.148 0.104 205.154 13.35 301.513 38.169l-8.393-1.834c63.833 21.132 113.102 70.539 133.623 132.988l0.419 1.471c22.977 87.759 36.17 188.511 36.17 292.343 0 104.065-13.252 205.035-38.161 301.315l1.828-8.327zM661.333 384h-206.332l76.497-76.501c8.036-7.769 13.026-18.647 13.026-30.69 0-23.564-19.103-42.667-42.667-42.667-12.043 0-22.92 4.989-30.678 13.014l-149.345 149.345c-7.725 7.718-12.503 18.384-12.503 30.165s4.778 22.447 12.503 30.165v0l149.333 149.333c7.769 8.036 18.647 13.026 30.69 13.026 23.564 0 42.667-19.103 42.667-42.667 0-12.043-4.989-22.92-13.014-30.678l-76.509-76.513h206.332c23.564 0 42.667-19.103 42.667-42.667s-19.103-42.667-42.667-42.667v0z" />
<glyph unicode="&#xe936;" glyph-name="arrow-left-round-fill" data-tags="arrow-left-round-fill" d="M746.667 810.667h-469.333c-82.433-0.102-149.231-66.9-149.333-149.323v-469.343c0.102-82.433 66.9-149.231 149.323-149.333h469.343c82.433 0.102 149.231 66.9 149.333 149.323v469.343c-0.102 82.433-66.9 149.231-149.323 149.333h-0.010zM682.667 384h-238.332l97.83-97.835c8.036-7.769 13.026-18.647 13.026-30.69 0-23.564-19.103-42.667-42.667-42.667-12.043 0-22.92 4.989-30.678 13.014l-170.679 170.679c-7.691 7.738-12.445 18.403-12.445 30.178s4.754 22.44 12.447 30.18l170.665 170.665c7.769 8.036 18.647 13.026 30.69 13.026 23.564 0 42.667-19.103 42.667-42.667 0-12.043-4.989-22.92-13.014-30.678l-97.842-97.872h238.332c23.564 0 42.667-19.103 42.667-42.667s-19.103-42.667-42.667-42.667v0z" />
<glyph unicode="&#xe937;" glyph-name="arrow-left-round" data-tags="arrow-left-round" d="M746.667 810.667h-469.333c-82.433-0.102-149.231-66.9-149.333-149.323v-469.343c0.102-82.433 66.9-149.231 149.323-149.333h469.343c82.433 0.102 149.231 66.9 149.333 149.323v469.343c-0.102 82.433-66.9 149.231-149.323 149.333h-0.010zM810.667 192c-0.041-35.33-28.67-63.959-63.996-64h-469.337c-35.33 0.041-63.959 28.67-64 63.996v469.337c0.041 35.33 28.67 63.959 63.996 64h469.337c35.33-0.041 63.959-28.67 64-63.996v-0.004zM725.333 426.667c0-23.564-19.103-42.667-42.667-42.667v0h-238.332l97.83-97.835c8.036-7.769 13.026-18.647 13.026-30.69 0-23.564-19.103-42.667-42.667-42.667-12.043 0-22.92 4.989-30.678 13.014l-170.679 170.679c-7.691 7.738-12.445 18.403-12.445 30.178s4.754 22.44 12.447 30.18l170.665 170.665c7.769 8.036 18.647 13.026 30.69 13.026 23.564 0 42.667-19.103 42.667-42.667 0-12.043-4.989-22.92-13.014-30.678l-97.842-97.872h238.332c23.564 0 42.667-19.103 42.667-42.667v0z" />
<glyph unicode="&#xe938;" glyph-name="arrow-left" data-tags="arrow-left" d="M810.667 469.334h-494.332l225.83 225.835c8.036 7.769 13.026 18.647 13.026 30.69 0 23.564-19.103 42.667-42.667 42.667-12.043 0-22.92-4.989-30.678-13.014l-298.679-298.679c-7.691-7.738-12.445-18.403-12.445-30.178s4.754-22.44 12.447-30.18l298.665-298.665c7.665-7.41 18.12-11.977 29.641-11.977 23.564 0 42.667 19.103 42.667 42.667 0 11.521-4.567 21.976-11.989 29.653l-225.818 225.848h494.332c23.564 0 42.667 19.103 42.667 42.667s-19.103 42.667-42.667 42.667v0z" />
<glyph unicode="&#xe939;" glyph-name="arrow-long-down" data-tags="arrow-long-down" d="M712.832 286.166c-7.718 7.725-18.384 12.503-30.165 12.503s-22.447-4.778-30.165-12.503v0l-97.835-97.83v579.665c0 23.564-19.103 42.667-42.667 42.667s-42.667-19.103-42.667-42.667v0-579.665l-97.835 97.83c-7.769 8.036-18.647 13.026-30.69 13.026-23.564 0-42.667-19.103-42.667-42.667 0-12.043 4.989-22.92 13.014-30.678l170.679-170.679c7.738-7.691 18.403-12.445 30.178-12.445s22.44 4.754 30.18 12.447l170.665 170.665c7.717 7.717 12.49 18.377 12.49 30.153 0 11.788-4.783 22.459-12.515 30.178l-0.001 0.001z" />
<glyph unicode="&#xe93a;" glyph-name="arrow-long-left" data-tags="arrow-long-left" d="M853.333 469.334h-579.665l97.83 97.835c7.41 7.665 11.977 18.12 11.977 29.641 0 23.564-19.103 42.667-42.667 42.667-11.521 0-21.976-4.567-29.653-11.989l-170.655-170.655c-7.691-7.738-12.445-18.403-12.445-30.178s4.754-22.44 12.447-30.18l170.665-170.665c7.665-7.41 18.12-11.977 29.641-11.977 23.564 0 42.667 19.103 42.667 42.667 0 11.521-4.567 21.976-11.989 29.653l-97.818 97.848h579.665c23.564 0 42.667 19.103 42.667 42.667s-19.103 42.667-42.667 42.667v0z" />
<glyph unicode="&#xe93b;" glyph-name="arrow-long-right" data-tags="arrow-long-right" d="M892.706 410.364c2.040 4.819 3.225 10.422 3.225 16.302 0 11.776-4.754 22.441-12.448 30.181l-170.665 170.665c-7.769 8.036-18.647 13.026-30.69 13.026-23.564 0-42.667-19.103-42.667-42.667 0-12.043 4.989-22.92 13.014-30.678l97.855-97.859h-579.665c-23.564 0-42.667-19.103-42.667-42.667s19.103-42.667 42.667-42.667v0h579.665l-97.83-97.835c-8.036-7.769-13.026-18.647-13.026-30.69 0-23.564 19.103-42.667 42.667-42.667 12.043 0 22.92 4.989 30.678 13.014l170.679 170.679c3.848 3.867 6.96 8.471 9.103 13.582l0.104 0.281z" />
<glyph unicode="&#xe93c;" glyph-name="arrow-long-up" data-tags="arrow-long-up" d="M712.832 627.499l-170.667 170.667c-7.738 7.691-18.403 12.445-30.178 12.445s-22.44-4.754-30.18-12.447l-170.665-170.665c-7.718-7.721-12.491-18.386-12.491-30.165 0-23.566 19.104-42.669 42.669-42.669 11.786 0 22.456 4.779 30.178 12.504l97.835 97.831v-579.665c0-23.564 19.103-42.667 42.667-42.667s42.667 19.103 42.667 42.667v0 579.665l97.835-97.83c7.665-7.41 18.12-11.977 29.641-11.977 23.564 0 42.667 19.103 42.667 42.667 0 11.521-4.567 21.976-11.989 29.653l0.012-0.012z" />
<glyph unicode="&#xe93d;" glyph-name="arrow-right-c" data-tags="arrow-right-c" d="M938.999 719.040l-0.166 0.585c-21.080 63.864-70.508 113.155-132.991 133.625l-1.469 0.417c-87.766 22.977-188.524 36.17-292.363 36.17-104.079 0-205.062-13.254-301.355-38.165l8.331 1.829c-63.815-21.139-113.066-70.545-133.568-132.988l-0.418-1.471c-22.976-87.758-36.168-188.506-36.168-292.335 0-104.069 13.253-205.043 38.163-301.325l-1.829 8.329c21.121-63.84 70.532-113.114 132.989-133.623l1.471-0.418c87.695-22.89 188.39-36.076 292.149-36.168h0.057c104.164 0.104 205.187 13.35 301.563 38.169l-8.396-1.835c63.821 21.135 113.078 70.542 133.581 132.989l0.418 1.471c22.989 87.769 36.189 188.53 36.189 292.373s-13.2 204.606-38.013 300.698l1.824-8.325zM856.32 155.499c-12.635-33.866-38.772-60.155-71.689-72.715l-0.844-0.283c-81.586-21.39-175.25-33.671-271.783-33.671-96.311 0-189.767 12.225-278.9 35.209l7.728-1.691c-33.874 12.622-60.168 38.764-72.716 71.69l-0.282 0.844c-21.39 81.593-33.672 175.263-33.672 271.802 0 96.317 12.225 189.78 35.209 278.919l-1.691-7.728c12.635 33.856 38.773 60.134 71.689 72.678l0.844 0.282c81.592 21.383 175.264 33.661 271.802 33.661 96.316 0 189.779-12.221 278.92-35.198l-7.729 1.69c33.953-12.687 60.282-38.96 72.765-72.028l0.28-0.846c21.342-81.486 33.596-175.033 33.596-271.443 0-96.311-12.229-189.766-35.218-278.897l1.691 7.726zM702.165 456.832c7.725-7.718 12.503-18.384 12.503-30.165s-4.778-22.447-12.503-30.165v0l-149.333-149.333c-7.665-7.41-18.12-11.977-29.641-11.977-23.564 0-42.667 19.103-42.667 42.667 0 11.521 4.567 21.976 11.989 29.653l76.485 76.489h-206.332c-23.564 0-42.667 19.103-42.667 42.667s19.103 42.667 42.667 42.667v0h206.332l-76.497 76.501c-8.036 7.769-13.026 18.647-13.026 30.69 0 23.564 19.103 42.667 42.667 42.667 12.043 0 22.92-4.989 30.678-13.014l0.012-0.012z" />
<glyph unicode="&#xe93e;" glyph-name="arrow-right-circle-fill" data-tags="arrow-right-circle-fill" d="M512 853.334c-235.641 0-426.667-191.025-426.667-426.667s191.025-426.667 426.667-426.667c235.641 0 426.667 191.025 426.667 426.667v0c-0.269 235.533-191.134 426.397-426.641 426.667h-0.026zM712.819 396.489l-170.667-170.667c-7.665-7.41-18.12-11.977-29.641-11.977-23.564 0-42.667 19.103-42.667 42.667 0 11.521 4.567 21.976 11.989 29.653l97.831 97.835h-238.332c-23.564 0-42.667 19.103-42.667 42.667s19.103 42.667 42.667 42.667v0h238.332l-97.83 97.835c-8.036 7.769-13.026 18.647-13.026 30.69 0 23.564 19.103 42.667 42.667 42.667 12.043 0 22.92-4.989 30.678-13.014l170.679-170.679c7.691-7.738 12.445-18.403 12.445-30.178s-4.754-22.44-12.447-30.18l0.002 0.002z" />
<glyph unicode="&#xe93f;" glyph-name="arrow-right-circle" data-tags="arrow-right-circle" d="M512 853.334c-235.641 0-426.667-191.025-426.667-426.667s191.025-426.667 426.667-426.667c235.641 0 426.667 191.025 426.667 426.667v0c-0.269 235.533-191.134 426.397-426.641 426.667h-0.026zM512 85.334c-188.513 0-341.333 152.82-341.333 341.333s152.82 341.333 341.333 341.333c188.513 0 341.333-152.82 341.333-341.333v0c-0.223-188.423-152.91-341.11-341.312-341.333h-0.022zM722.039 410.364c-2.25-5.397-5.366-10.006-9.222-13.877l-170.666-170.666c-7.665-7.41-18.12-11.977-29.641-11.977-23.564 0-42.667 19.103-42.667 42.667 0 11.521 4.567 21.976 11.989 29.653l97.831 97.835h-238.332c-23.564 0-42.667 19.103-42.667 42.667s19.103 42.667 42.667 42.667v0h238.332l-97.83 97.835c-8.036 7.769-13.026 18.647-13.026 30.69 0 23.564 19.103 42.667 42.667 42.667 12.043 0 22.92-4.989 30.678-13.014l170.679-170.679c7.692-7.738 12.446-18.403 12.446-30.179 0-5.88-1.186-11.484-3.331-16.584l0.105 0.282z" />
<glyph unicode="&#xe940;" glyph-name="arrow-right-fill-c" data-tags="arrow-right-fill-c" d="M938.978 719.040l-0.145 0.585c-21.121 63.84-70.532 113.114-132.989 133.623l-1.471 0.418c-87.76 22.994-188.511 36.197-292.346 36.197-104.074 0-205.051-13.264-301.331-38.193l8.325 1.83c-63.84-21.104-113.108-70.524-133.582-132.99l-0.417-1.47c-23.006-87.769-36.215-188.531-36.215-292.378 0-104.056 13.263-205.014 38.19-301.276l-1.829 8.323c21.121-63.84 70.532-113.114 132.989-133.623l1.471-0.418c87.697-22.891 188.391-36.078 292.151-36.168h0.055c104.155 0.102 205.171 13.348 301.538 38.169l-8.393-1.834c63.821 21.135 113.078 70.542 133.581 132.989l0.418 1.471c23.018 87.768 36.234 188.527 36.234 292.373s-13.216 204.606-38.058 300.688l1.825-8.315zM702.178 396.48l-149.333-149.333c-7.665-7.41-18.12-11.977-29.641-11.977-23.564 0-42.667 19.103-42.667 42.667 0 11.521 4.567 21.976 11.989 29.653l76.472 76.511h-206.332c-23.564 0-42.667 19.103-42.667 42.667s19.103 42.667 42.667 42.667v0h206.332l-76.497 76.501c-8.036 7.769-13.026 18.647-13.026 30.69 0 23.564 19.103 42.667 42.667 42.667 12.043 0 22.92-4.989 30.678-13.014l149.345-149.345c7.725-7.718 12.503-18.384 12.503-30.165s-4.778-22.447-12.503-30.165v0z" />
<glyph unicode="&#xe941;" glyph-name="arrow-right-round-fill" data-tags="arrow-right-round-fill" d="M746.667 810.667h-469.333c-82.433-0.102-149.231-66.9-149.333-149.323v-469.343c0.102-82.433 66.9-149.231 149.323-149.333h469.343c82.433 0.102 149.231 66.9 149.333 149.323v469.343c-0.102 82.433-66.9 149.231-149.323 149.333h-0.010zM712.819 396.489l-170.667-170.667c-7.665-7.41-18.12-11.977-29.641-11.977-23.564 0-42.667 19.103-42.667 42.667 0 11.521 4.567 21.976 11.989 29.653l97.831 97.835h-238.332c-23.564 0-42.667 19.103-42.667 42.667s19.103 42.667 42.667 42.667v0h238.332l-97.83 97.835c-8.036 7.769-13.026 18.647-13.026 30.69 0 23.564 19.103 42.667 42.667 42.667 12.043 0 22.92-4.989 30.678-13.014l170.679-170.679c7.691-7.738 12.445-18.403 12.445-30.178s-4.754-22.44-12.447-30.18l0.002 0.002z" />
</font>
</defs>
</svg>
