<?xml version="1.0" standalone="no"?><!DOCTYPE svg PUBLIC "-//W3C//DTD SVG 1.1//EN" "http://www.w3.org/Graphics/SVG/1.1/DTD/svg11.dtd"><svg t="1608693925313" class="icon" viewBox="0 0 1024 1024" version="1.1" xmlns="http://www.w3.org/2000/svg" p-id="11797" xmlns:xlink="http://www.w3.org/1999/xlink" width="200" height="200"><defs><style type="text/css"></style></defs><path d="M512 0c282.768 0 512 229.232 512 512 0 282.768-229.232 512-512 512C229.232 1024 0 794.768 0 512 0 229.232 229.232 0 512 0z m5.328 240.064c-96-2.72-173.328 73.44-176 171.344v54.4S272 637.12 272 658.88c0 35.36 10.672 35.36 21.328 24.48l45.344-46.24v10.88A169.488 169.488 0 0 0 384 737.776c-21.328 10.88-56 24.48-56 46.224h368c0-24.48-34.672-35.36-58.672-46.24 26.672-21.76 42.672-54.4 45.344-89.744v-13.6s10.656 13.6 45.328 46.24c13.328 13.6 24 13.6 24-21.76 0-20.976-64.48-181.04-69.072-192.448l-0.256-0.64v-57.12C680 316.208 608 242.784 517.328 240.064z" fill="#1bc1fa" p-id="11798"></path></svg>